<svg width="266" height="280" fill="none" xmlns="http://www.w3.org/2000/svg"><g clip-path="url(#a)"><path d="M258.976 249.787s-1.741-1.612-3.668-3.412c-1.943-1.801-.778-5.8-5.23-6.604-4.459-.794-2.901-.999-6.779-4-3.868-3.002-6.575-1.8-5.994 1.2.579 3.003-.974 5.009-4.842 7.603-3.87 2.605-10.453-.793-12.194-3.796-1.742-3.003 1.356-3.604 1.741-6.412.382-2.8-.385-8.6-5.808-9.198-5.42-.601-5.805-2.209-11.414-7.016-5.622-4.803-5.229-3.996-8.327-7.995-3.103-4.013-8.709-5.814-8.709-5.814h2.32c2.322 0 6.389-.793 9.094-3.003 2.718-2.196 3.103-6.198 6.004-6.401 2.904-.203 9.094 6.006 12.195 8.205 1.846 1.315 3.139.639 4.703-.038 1.06-.461 2.244-.921 3.81-.756 3.878.395 3.482 3.601 5.04 7.002 1.545 3.398 2.904 8.8 2.904 8.8s-.581-14.204-5.229-18.204c-4.643-4.01-6.779-.601-10.265-.408-3.485.203-5.412-5.8-11.416-6.797-6.005-1.01-7.746 1.392-9.487 3.999-1.742 2.605-4.834 2.605-9.095 4-4.26 1.405-10.833-1.598-13.936-5.803-3.1-4.202-8.327-10.205-13.553-13.124-5.227-2.908-12.959-.287-12.959-.287l2.904-2.8c2.901-2.8 7.931-9.81 7.931-9.81s7.746-2.404 10.254-1.394c2.522.996 8.128 4.202 12.195 7.397 4.064 3.206 7.363 2.811 10.846 2.402 3.485-.396 5.227-1.598 8.128-2.199 2.907-.598 5.994 3.807 5.994 3.807s3.88 2.597 6.004 2.8c2.126.203 6.19 0 6.19 0s-3.485-.804-6.19-1.202c-2.705-.396-3.286-3.398-6.19-5.405-2.901-2.004-6.586-2.315-6.586-2.315s.964-1.887 3.87-4.289c2.902-2.402 9.103-2.196 8.906-2.605-.196-.398-8.709-.793-11.034 2.21-2.32 3.002-4.062 4.202-9.87 4.646-5.808.433-9.29-3.052-12.577-6.052-3.299-3.003-6.968-4.803-6.968-4.803s2.902-2.199 7.55-1.598c4.642.601 10.833 2.594 15.284 2.199 4.457-.398 6.002-2.402 8.906-4.408 2.789-1.909 8.243-.336 8.686-.203-.346-.195-4.25-2.342-8.686-1.395-4.645.997-4.263 2.605-9.094 3.807-4.842 1.203-6.201-1.202-14.133-3.601-7.931-2.402-12.391-3.412-16.84-2.402l-.117.022c-4.389 1.034-7.466 4.614-11.114 8.575-3.668 4.01-7.549 4.203-11.416 5.213-3.716.961-4.224 3.769-7.351 4.503l-.395.094c-3.333.577-7.722-4.887-8.094-5.366l-.024-.025c.312.098 5.9 1.982 9.676 1.587.812-.087 1.532-.398 2.184-.891l.01-.011c2.475-1.898 3.936-6.485 5.156-11.708 1.545-6.607.582-9.609 1.742-13.403.429-1.405 1.068-2.618 1.961-3.699 1.534-1.873 3.833-3.398 7.133-4.912 5.226-2.401 9.869-.996 14.713 1.598 4.845 2.608 4.067 5.405 7.932 6.209 3.881.804 4.263-2.8 4.459-5.608.189-2.8 2.323-6.006 6.191-8.405 3.867-2.404 6.583-2.404 9.094-1.205 2.519 1.205 3.297 4.013 3.1 6.81-.196 2.8-1.545 5.01 1.938 7.807 3.312 2.656 6.447 4.6 6.748 4.779-.241-.276-2.215-2.448-4.04-3.58-1.941-1.199-2.904-4.199-1.744-6.003 1.165-1.8.581-6.604.581-6.604 1.406.528 4.509 2.989 6.169 4.408-1.126-1.226-3.009-3.376-5.26-5.418-2.035-1.874-4.379-3.663-6.714-4.598-6.005-2.401-10.454-.398-10.454-.398s-2.901-1.594-4.446-4.803c-1.558-3.206-.581-6.003.964-9.212 1.416-2.94 5.294-5.702 5.923-6.146-.28.132-1.349.625-4.378 1.947-3.672 1.608-5.808 4.405-6.772 9.209-.964 4.803 1.359 10.411 1.359 10.411s.966.601 0 2.198c-.977 1.598-3.297 6.209-6.782 5.8-3.347-.384-6.156-3.349-11.336-5.884l-.66-.311c-5.611-2.607-9.489-.601-13.739 1.993-4.263 2.605-8.908 8.814-8.908 12.009 0 .923-.37 1.873-.975 2.832-.209.328-.442.661-.688.999-1.553 2.077-3.912 4.251-5.69 6.58-2.902 3.807-6.387 6.81-10.451 6.003-4.067-.804-4.067-5.199-5.041-9.401-.963-4.203-5.226-7.013-9.673-15.613-4.448-8.611-10.07-11.012-13.158-11.611-1.312-.254-2.66-1.045-3.972-2.125h-.013c-1.776-1.468-3.47-3.436-4.923-5.286-1.88-2.377-3.645-4.324-7.222-6.401-1.22-.707-2.647-1.427-4.378-2.196h-.013c-6.526-2.894-13.97-1.142-14.48-1.021l-.038.011c2.326-3.195 1.163-7.205-.196-9.799-1.349-2.605-1.93-5.21-2.126-8.61-.197-3.399.385-6.006-3.483-10.604-3.867-4.611-6.772-2.21-8.908-3.807-2.127-1.598-1.349-4.803 2.322-7.002 3.682-2.21 4.064-.203 8.131.601 1.624.317 3.124.19 4.465.062 2.013-.192 3.668-.384 4.826.934l.057.06c1.998 2.199 8.5 5.55 13.111 5.74 4.648.206 7.932-6.003 8.71-8.404.767-2.405 4.066-3.398 4.066-3.398l.024.01c.406.157 5.852 2.27 7.709 4.395 1.94 2.199 6.585 2.402 8.13 5.404 1.556 3.003 4.842 5.803 7.364 6.605 2.508.793 10.45-2.004 10.45-2.004s3.09 3.398 1.847 5.402c-1.242 2.006-.105 4.205 0 6.209.117 1.995 3.38.996 3.38.996s-1.94-1.798-2.137-3.601c-.183-1.8 2.137-2.797 2.718-5.007.582-2.198-2.521-4.803-2.521-4.803l4.263-1.203s5.226 1.609 8.13 3.412c2.904 1.8 3.486 1.8 3.486 1.8s-4.46-5.212-7.749-6.002c-3.286-.807-2.904-2.212-9.696-1.408-6.795.807-5.203 1.408-9.466 1.597-4.263.206-6.387-5.401-6.387-5.401s4.446-1.996 5.227-3.605c.777-1.597 1.937-3.398 3.865-3.793 1.943-.409 3.103-1.803 3.299-4.614.189-2.797 0-6.195 0-6.195s-1.356 1.8-1.16 4.395c.183 2.607-.78 3.411-3.485 3.806-2.716.396-3.881.997-5.423 4.206-1.545 3.206-4.064 3-8.712.709-4.643-2.296-9.487-4.711-9.487-4.711s.778-3.206.581-6.412c-.186-3.195-1.741-3.003-1.545-5.594.197-2.608 4.447-4.409 4.447-4.409s-3.284-1.405-5.41 1.2c-2.137 2.608-2.137 5.8-2.522 8.803-.382 3.003-1.16 4.01-5.028 6.412-3.878 2.404-6.004 4.995-9.487 6.005-3.485.997-8.13-3.206-10.835-4.202-2.718-1.01-9.686.395-14.332.996-4.648.602-9.094.203-11.615 1.912-2.509 1.714-1.545 5.892-1.16 9.702.35 3.314 2.45 4.646 4.901 6.398l.024.014c.359.251.72.517 1.079.793 2.904 2.196 4.263 3.195 4.263 9.401 0 6.209.186 10.411-1.938 14.208a10.715 10.715 0 0 1-1.189 1.703l-.02.016c-1.509 1.822-3.601 3.192-5.772 3.961-1.163.42-2.346.672-3.475.734-3.865.192-6.004-1.01-9.091-5.212-3.1-4.205-6.586-11.41-10.65-16.011-4.064-4.598-6.387-10.411-6.583-14.012-.073-1.454-.118-2.678-.073-4.046.013-.362.036-.736.06-1.118v-.01c.128-1.804.419-3.99.987-7.23 1.16-6.607.186-19.42 0-26.22-.196-6.806-6.782-15.417-12.194-20.017 0 0-9.291.398-19.163-3.206C-35.03 7.397-42 0-42 0s.77 7 3.868 12.2c.314.529.615 1.033.895 1.512l.01.013.247.396c1.775 3.003 3.134 5.166 5.643 8.274l.044.05a110.99 110.99 0 0 0 2.834 3.373c2.555 2.94 4.6 5.296 6.297 7.6 1.775 2.402 3.169 4.745 4.355 7.604 1.995 4.828 2.995 18.686 3.482 27.175.082 1.38.142 2.618.197 3.652.024.515.058 1.007.094 1.5v.014c.43 6.555 1.393 11.01 3.195 17.906 1.937 7.395 8.513 13.4 10.835 17.411 2.32 3.999 6.387 9.005 8.906 12.609 2.522 3.602 7.164 4.395 11.812 6.006 3.716 1.283 8.43 1.151 10.163 1.043l.22-.011.335-.025.115-.011.013.036c.186.265 1.36 2.234 1.532 5.572.197 3.601-.767 3.398-4.828 4.996-4.067 1.608-7.364 8.61-9.49 12.009-2.126 3.411-3.485 7.408-2.708 13.809.768 6.414 4.253 13.617 8.898 16.214 4.646 2.605 4.646 2.401 3.682 3.003-.964.598.385 3.807-1.94 7.202-2.323 3.412-4.25 1.611-7.154-1.595-2.904-3.208-5.423-6.005-9.872-6.81-4.274-.755-10.485 2.137-10.996 2.389.406-.084 3.784-.791 8.859-.983 5.426-.203 4.844.804 6.782 5.607 1.93 4.804 4.25 5.597 4.25 5.597s-3.865-.601-6.968 3.206c-3.09 3.807-3.865 4.202-6.188 5.8-2.322 1.608-5.611-.793-5.611-.793s1.348 2.198 3.671 3.003c2.323.793 3.297.192 5.038-2.605 1.747-2.8 4.648-4 8.13-3.604 3.486.398 9.477-2.605 12.384-4.601 2.901-2.003 4.46-9.81 5.423-12.415.673-1.8 1.81-2.258 3.624-2.908.785-.287 1.705-.612 2.76-1.091 3.485-1.597 6.19-1.405 12.194 1.405 5.96 2.773 5.437 11.083 5.994 16.285l.01.119c.072.612.095 1.164.072 1.681-.116 3.964-2.496 5.895-4.716 11.733-2.52 6.604-.778 17.413 2.325 23.021 1.904 3.447 3.215 4.31 4.944 4.695 1.081.265 2.312.325 3.951.709 4.26.997 6.965 5.405 9.105 7.807 2.123 2.401 1.346 4.199.382 8.8-.964 4.6-4.842-.599-7.746-2.196-2.904-1.609-5.808.395-8.709 3.601-2.765 3.052-8.35 11.925-8.85 12.743.557-.542 5.77-5.765 9.431-9.74 3.878-4.202 7.55-2.811 10.844-.406 3.08 2.244 4.3 1.329 4.438 1.21-.256.349-4.25 5.922-4.25 9.799 0 4 2.718 5.405 2.718 5.405-2.139-2.402-1.359-4.804 1.346-7.411 2.718-2.591 3.1-5.594 4.462-10.807 1.344-5.198-.98-9.198-.98-9.198s3.3 2.594 5.427 3.604c1.201.564 3.09.038 5.027-.487 1.487-.401 3.004-.804 4.263-.718 2.904.195 2.52 8.205 3.486 10.005.74 1.381 3.412 3.231 4.619 4.024-2.729-2.199-4.284-10.316-5.004-14.435-.78-4.394-6.584-2.594-10.454-1.993-3.878.601-2.322.601-6.384-4.611-4.066-5.201-8.526-6.799-11.616-7.205-3.008-.385-4.55-4.527-4.634-4.793.07.035.421.255 2.312 1.392 2.322 1.405 5.027.807 8.314-.598 3.299-1.406 4.263-4.205 7.944-5.199 3.672-1.01 4.646 3.195 6.573 5.797 1.94 2.608 2.325 1.202 6.203.999 3.868-.192 6.968.804 10.254 2.605 3.287 1.801 2.904 7.603 2.904 7.603s1.543-4.803-1.359-8.803c-2.809-3.869-7.606-2.87-7.92-2.81.138-.192 1.497-2.126.767-4.601-.778-2.594.767-4.597 4.249-4.995 3.486-.406 3.297-3 3.297-3s-3.098 1.594-6.2 1.8c-3.088.19-3.865 1.801-3.486 5.597.398 3.804-.764 3.804-4.25 3.409-3.482-.406-6.2-6.003-11.032-7.806-4.841-1.801-8.709 3.604-12.194 6.195-3.483 2.607-6.782-1.798-7.942-6.003-.582-2.101-.828-3.856-.477-5.716.335-1.849 1.254-3.794 2.996-6.293 2.15-3.087 2.09-5.643 1.73-7.145l-.023-.082c-.186-.698-.416-1.156-.51-1.31l-.011-.035c.22.13 1.974 1.272 5.585 2.567 3.878 1.408 8.526 1.202 13.355 1.202 4.844 0 10.068-2.594 12.394-3.398 2.32-.807 4.061 2.196 7.745 4.803 3.669 2.605 8.314 3.398 8.314 3.398l5.041-3.398s-1.558.203-4.067.997c-2.516.806-5.226-.602-6.583-2.798-1.359-2.198-6.004-5.201-6.004-5.201s2.322-1.2 6.201-1.2c3.658 0 8.023.889 8.478.983-.652-.252-12.134-4.562-18.162-3.793-5.913.769-8.654 2.629-8.887 2.797.084-.144.804-1.392 1.534-4.395.778-3.206-1.741-6.003-1.741-6.003s-.2-1.597 3.483 0c3.681 1.595 3.681 3.398 8.908 3.807 5.226.396 4.449-2.81 4.449-2.81l-3.286 1.402c-3.3 1.408-5.808-.804-8.33-3.601-2.52-2.797-5.423-1.801-5.423-1.801s-.183-4.408 3.103-6.208c3.284-1.801 14.899-.794 14.899-.794s-5.226-.804-11.416-1.608c-6.19-.793-5.61.804-9.095 4.01-3.482 3.195-3.482 9.799-1.359 14.004 2.127 4.203-3.1 6.209-7.745 7.804-4.646 1.611-5.806-.997-11.218-5.402a9.99 9.99 0 0 1-1.126-1.059c-3.763-4.069-.778-8.261-.432-11.949.398-3.999-1.346-3.999-2.32-6.003-.953-1.982-2.66-9.033-9.966-10.354l-.289-.057c-7.549-1.202-10.07.203-10.652 2.808-.579 2.594-1.927 2.199-4.061 1.803-2.127-.409-5.808 2.196-7.353 3.997-1.545 1.803-3.286-1.598-5.808-5.402-2.52-3.807-2.705-10.208 0-15.816 2.705-5.597 7.353-10.809 12.195-12.201.641-.192 1.23-.398 1.801-.636h.01c3.75-1.538 6.12-4.121 8.642-7.771 2.901-4.203-1.163-11.408-1.163-11.408s1.93-1.849 4.598-3.349h.013a15.757 15.757 0 0 1 2.66-1.227l.045-.011c.896-.325 1.825-.552 2.752-.625 5.03-.396 10.454 3.412 14.321 5.608 2.066 1.177 3.308 2.583 4.423 4.191.977 1.395 1.872 2.93 3.127 4.611 2.705 3.604 3.485 9.415 7.745 14.015 3.635 3.927 10.66 4.647 14.562 6.401.676.301 1.244.623 1.697 1.008 3.087 2.594 4.645 9.201 6.771 15.409 2.124 6.209 7.744 16.813 15.398 18.816 7.667 1.993 14.797.999 20.605-.206 1.799-.371 3.435-.72 5.038-1.007 3.58-.636 6.947-.948 11.22-.395 6.191.804 7.746 5.404 8.325 8.61.581 3.206 3.671 5.8 5.611 8.01 1.938 2.198 1.742 2.594.383 5.201-1.346 2.605 1.162 4.203.581 5.8-.581 1.609-3.286 1.609-6.387 2.004-3.09.398-4.449 1.801-4.449 1.801s-4.841-1.801-8.908-1.403c-4.064.406-4.25 6.209-4.831 8.611-.579 2.399-4.459 2.604-6.782 2.604-2.323 0-2.904 3.398-2.904 3.398s3.485-1.597 6.387-2.006c2.904-.395 4.066-.189 5.425-2.591 1.357-2.402.197-5.611 2.522-7.205 2.32-1.612 7.546 1.8 7.546 1.8s.001 4 1.928 8.6c1.94 4.608 2.904 6.003 6.203 9.209 3.286 3.206 5.991 5.006 8.513 5.199 2.519.205 6.188-1.392 8.51-2.594 2.326-1.2 4.077-.997 6.204 4.6 2.113 5.597-.584 11.012-.584 11.012s2.906-3.807 3.092-6.003c.197-2.212-1.545-6.81-1.927-8.012-.398-1.199 4.061 1.202 6.57 3.206 2.44 1.933 4.881 3.688 5.03 3.772-.094-.252-1.021-2.413-4.831-5.981-4.064-3.794-7.549-2.399-7.549-2.399s-3.679-2.597-5.609-2.405c-1.941.206-4.263 0-6.782 2.21-2.509 2.198-4.832-1.008-4.832-1.008s2.904-1.394 5.227-4.205c2.32-2.797 0-3-.196-5.402-.189-2.269 3.412-1.502 3.831-1.405-3.844-2.185-5.958.024-5.774 2.21.201 2.198-.38 4.803-3.284 5.404-2.904.599-7.353-3.003-9.676-8.012-2.32-4.993-.777-8.597 2.323-9.401 3.09-.804 7.735-.203 9.673-3.604 1.94-3.398 1.744-9.81 1.744-9.81s9.094 1.8 12.391 4.202c3.289 2.402 4.645 4.408 8.712 8.01 4.064 3.604 4.643 3.999 7.732 5.8 3.103 1.803 7.364 1.611 8.71 2.607 1.361.997 1.558 6.209-.765 8.803-2.325 2.605-1.558 6.412 3.483 10.614 5.03 4.205 13.161 2.8 15.68 1.395 2.508-1.395 5.805 1.199 8.314 3.206 2.519 2.003 1.555 7.411 2.904 10.002 1.359 2.607 6.004 1.202 9.293 2.006 2.658.65 2.912 1.165 2.912 1.346.057-.314.104-1.947-3.878-3.748-4.449-2.003-3.682.396-6.191-2.604-2.521-3.003-.777-7.807-3.485-10.208-2.715-2.402-8.523-3.604-8.523-3.604s2.139-.791 3.681-2.196c1.545-1.406-1.359-5.01-.382-5.803.964-.804 2.323 2.199 4.064 4.205 1.741 1.993 2.323.997 5.03.601 2.705-.409 3.287 2.797 5.227 5.8 1.938 3 4.446 2.007 4.446 2.007" fill="#fff"/></g><defs><clipPath id="a"><path fill="#fff" d="M0 0h1440v1024H0z"/></clipPath></defs></svg>