<svg width="359" height="440" fill="none" xmlns="http://www.w3.org/2000/svg"><g fill="#fff" clip-path="url(#a)"><path d="M252.516 169.848s1.499-3.611 3.877-6.557c2.378-2.964 1.79-5.785 12.209-6.557 10.44-.772 13.125 5.398 13.125 5.398s-3.575 4.366-3.575 5.91c0 1.545-4.471 2.053-4.471 2.053s.593 1.294 5.954.772c5.365-.511 3.269-2.825 8.634-5.649 5.361-2.839 9.549.772 9.549.772l.891 2.825c.894 2.821 2.68 6.678 1.789 10.028-.895 3.347-7.759 5.66-7.759 5.66s6.562.772 10.133-4.891c3.58-5.663.307-8.484-.89-11.57-1.198-3.085 1.197-2.577 5.365-4.751 4.163-2.192 8.936-6.557 6.844-11.956-2.076-5.402-3.269-12.342.302-19.285 3.58-6.943 10.138-6.171 16.986-6.435 6.844-.261 12.209 4.891 15.196 14.659 1.54 5.043 2.681 8.376 2.592 11.802v.014c-.052 3.179-1.201 6.418-4.079 11.201-5.97 9.889 2.68 18.126 8.049 19.914 2.786.943 4.201 1.468 5.591 2.487 1.29.908 2.523 2.268 4.825 4.721 2.31 2.466 2.189 4.181.395 5.506-1.911 1.419-5.736 2.421-10.528 3.489-8.812 1.973-12.48-.295-12.782-.497.105.156 2.06 2.856 10.996 4.351 9.239 1.545 14.608 2.067 22.649-.507 8.046-2.578 8.046-5.138 13.995-9.257 5.974-4.118 8.046-10.54 7.457-13.625-.125-.661.036-1.465.447-2.31 1.431-3.075 5.845-6.929 10.279-8.748 5.667-2.317 8.638-1.806 11.621 1.033 2.983 2.821 4.772 16.968 5.949 21.845.291 1.203.323 2.484.129 3.809-.572 4.087-3.148 8.47-6.078 11.371-1.217 1.204-2.274 2.052-3.362 2.685-1.322.787-2.68 1.249-4.377 1.604l-.395.077c-1.234.261-2.665.48-4.382.772-6.252 1.033-10.133 4.891-16.389 6.171-2.342.476-3.918.062-5.24-.679-2.217-1.234-3.684-3.381-6.667-3.687-4.777-.525-9.545 2.56-13.124 4.101-3.576 1.545-1.484 4.891-2.379 12.867-.552 5.013 1.468 6.557 3.741 9.072 1.322 1.482 2.717 3.301 3.716 6.356.198.605.359 1.141.484 1.666 1.641 6.651-1.826 7.204-3.773 5.524-1.842-1.587-8.924-11.57-12.137-17.369v-.017l-.29-.511-.302-.585-.375-.803a25.847 25.847 0 0 0-1.874-3.301l-.036-.063-.077-.139c-2.765-4.24-6.772-8.853-9.327-13.465l-.343-.571c-3.289-5.785-8.4-12.328-10.996-13.563-2.681-1.297-21.734 4.105-21.734 4.105s-9.118 8.008-12.516 10.029l4.184 16.676 5.039 20.102s1.95-5.291 3.273-7.715l.145-.247c1.322-2.314 5.824-10.304 11.782-12.864 5.965-2.578 13.406.508 19.07 3.332 3.664 1.834 6.457 8.192 8.779 13.977 1.249 3.162 2.378 6.154 3.434 8.147 1.713 3.252 4.627 6.679 8.223 10.133 1.947 1.913 4.127 3.826 6.433 5.708.774.65 1.54 1.266 2.326 1.899l.629.477.016.017c7.312 5.291 15.623 3.253 21.415-.494 5.954-3.857 7.74-12.606 5.059-16.971a15.543 15.543 0 0 1-.963-1.928v-.017l-.27-.755c-1.52-4.289-1.786-9.827-3.237-14.022-.714-2.052-.806-3.642-.448-4.97l.162-.477c.661-1.76 2.18-3.04 4.164-4.32 2.45-1.587 6.67-2.668 11.213-3.531 1.052-.219 2.145-.403 3.233-.588 1.056-.17 2.092-.341 3.132-.508 6.558-1.036 11.31-5.402 17.872-9.52 6.563-4.105 9.118-16.708 5.958-23.651-3.148-6.943-3.273-9.517-3.866-16.968-.604-7.454-6.558-10.293-9.544-14.78-.98-1.482-1.859-2.839-2.717-3.98-1.754-2.348-3.414-3.781-5.615-3.61-3.289.261-11.923 7.204-17.591 12.602-5.647 5.402-6.255 7.963-8.94 11.048-2.68 3.086-15.192 8.237-21.734 8.745-3.237.251-5.615-1.311-7.401-3.715-1.822-2.456-3.023-5.771-3.934-8.888-1.789-6.17 2.983-9.503 6.558-19.792 3.132-8.996-1.926-15.229-4.861-20.426v-.018c-.407-.754-.786-1.481-1.088-2.191-2.398-5.646 1.483-9.764 7.735-15.935 6.26-6.171 7.457-10.536 7.155-21.337-.303-10.505-9.884-17.372-10.404-17.727.246.435 4.487 7.392 5.631 13.873 1.197 6.678-1.487 16.443-1.181 14.902.29-1.545-5.365-6.944-13.12-7.19-2.265-.077-4.047 0-5.583.08-3.712.184-5.994.375-10.202-1.622-5.953-2.838-8.638-6.17-8.638-6.17s0 3.854 6.546 7.958c4.817 3.027 8.344 2.999 12.705 2.971 1.58-.01 3.269-.021 5.172.115 7.151.525 5.365 9.781 1.197 12.001-4.043 2.177-1.91 9.673-1.806 10.108l-3.861-3.336c-3.862-3.346-15.483-6.167-23.528-6.678-8.046-.522-11.331 1.544-19.969 2.824-8.63 1.28-13.708-2.824-13.708-2.824s1.785 4.104 9.242 7.454c6.953 3.113 11.028.414 11.565.059-.537.665-5.023 6.265-5.309 12.544-.306 6.678 1.79 14.394 2.987 17.74 1.181 3.333-7.76 5.399-16.7 4.877-8.94-.508-8.634-4.105-15.192-6.174-6.546-2.049-12.516 2.316-17.578 4.383-5.059 2.052-6.558 13.886-6.558 13.886M28.671 189.069c1.977.566 2.598.524 2.963.481.444-.051.509-.101 2.163.931 3.025 1.878 4.077 2.978 7.555 1.878 3.468-1.098 2.263-3.919 3.468-4.858 1.207-.941 3.018 2.668 5.888 4.124 2.871 1.459 5.888.734 8 .104 2.118-.621 3.62 1.73 3.62 1.73s-1.656 0-3.167.78c-1.505.78-2.565 2.98-3.317 4.072-.761 1.1-1.964.788-3.776 1.88-1.813 1.1-2.871 1.568-4.53 1.729-1.656.151-3.325-2.821-4.683-4.55-1.358-1.719-2.861-1.41-4.53-.939-1.656.47-5.277 1.259-5.277 1.259s3.774.15 5.588-.471c1.81-.629 2.563 1.41 4.672 3.29 2.12 1.882 2.12 3.442 5.435 3.133 3.325-.312 3.025-1.571 5.137-1.883 2.11-.309 3.776-2.039 4.98-4.228 1.206-2.19 4.077-2.512 5.736-1.41 1.664 1.098 4.979 2.349 8.91 2.978 3.924.621 7.392.312 11.017 2.351 3.623 2.03 2.263 5.17 4.076 7.83 1.81 2.662 6.648 5.01 6.648 5.01s-1.513 4.392-3.48 5.331c-1.956.941-5.124 1.571-7.843.31-2.716-1.249-4.838-5.17-6.794-7.671-1.963-2.51-6.493-3.449-10.416-2.98-3.932.47-7.553 3.76-8.758 5.01-1.205 1.26-4.683.001-6.188-1.409-1.514-1.41-1.812-4.54-4.528-5.791-2.716-1.259-4.836-.47-8.308.893-3.468 1.354-5.884 2.238-5.884 2.238 2.87.78 4.227 0 8.902-1.719 4.683-1.73 4.836 1.248 6.195 3.101 1.358 1.861 4.828 4.729 4.828 4.729s-4.375 1.721-7.853 1.568c-3.47-.159-4.675-2.039-4.675-2.039s-.153 1.88 3.017 3.131c3.171 1.259 7.544.788 12.836-1.41 5.28-2.191 6.03-4.381 9.356-5.49 3.325-1.1 7.998.009 7.998.009-1.81-.159-6.187 2.66-7.247 3.449-1.05.782-1.203 3.762 1.36 6.422 2.572 2.66 5.288 5.17 4.528 5.95-.751.79-3.014 1.1-3.014 1.1-1.224-1.486-3.019-2.51-5.435-2.51-2.42 0-4.53 2.98-5.437 4.86-.904 1.881-4.683 1.101-4.683 1.101 1.965 1.56 3.779 1.409 5.889-.471 2.12-1.88 2.264-2.98 4.53-3.61 2.262-.621 3.024.941 3.024.941s-2.12.63-2.571 2.198c-.454 1.56-1.814 7.521-1.052 9.403.717 1.785-.617 3.572-.752 3.75 1.512-.63 2.709-2.512 2.255-5.009-.451-2.503.309-6.263 1.06-7.673.752-1.412 5.282-1.1 7.093-2.51 1.81-1.411.76-3.289-1.505-5.949-2.263-2.671-3.93-5.331-3.478-6.582.453-1.259 5.888-3.451 8.008-2.942 2.11.507 3.768 5.761 6.341 7.794 2.561 2.039 9.511 1.878 11.621-.153 2.11-2.039 2.563-5.169 5.137-6.74 1.756-1.081 4.156-1.193 6.223-.337h.016a6.946 6.946 0 0 1 2.51 1.749c2.263 2.509 5.888 6.27 8.76 8.15 2.444 1.598 5.749 3.883 8.539 7.512h.01c.49.629.96 1.314 1.413 2.039 3.017 4.86 2.872 10.5 1.657 13.951-.778 2.217-2.435 6.795-3.35 11.064-.506 2.34-.788 4.606-.572 6.327.607 4.85.607 16.131 9.213 28.352 2.192 3.12 4.012 5.236 5.525 6.664.543.518 1.052.95 1.53 1.308 3.398 2.575 5.099 1.56 6.678 2.688 2.416 1.721 8.006 1.411 12.083 2.501 4.076 1.1 4.219 4.701 4.374 7.37.155 2.66 1.358 7.67 5.733 10.962 2.183 1.635 4.077 3.29 5.843 4.727l.08.066c1.75 1.44 3.39 2.66 5.102 3.516 3.47 1.719 8.759 5.641 18.567 6.421 9.811.78 13.289.309 18.571-1.1.596-.159 1.213-.31 1.846-.469l.506-.123c4.865-1.157 10.563-2.238 14.703-4.26 4.836-2.348 7.7-6.429 9.211-9.869 1.514-3.451 5.888-7.37 7.855-13.01 1.213-3.506 3.605-6.103 6.611-7.455.96-.432 1.993-.744 3.062-.911.97-.142 1.974-.181 3.008-.096 4.156.339 8.396.761 12.489 1.637.79.159 1.56.337 2.33.544.752.197 1.493.405 2.237.64 5.434 1.728 11.774 3.761 14.945 6.58 3.17 2.821 9.356 6.111 15.853 11.132 4.936 3.815 8.214 9.616 9.897 17.145.111.45.2.912.292 1.372.378 1.967.66 4.053.834 6.234.906 11.28.596 20.371-.907 27.733-.343 1.672-.868 3.457-1.512 5.282-2.193 6.187-5.681 12.774-7.546 16.648-.588 1.222-1.503 2.746-2.59 4.383l-.271.413c-3.354 5-8.127 10.912-10.128 12.753-2.717 2.512-8.298 7.055-11.168 8.623-2.871 1.56-1.06 5.95-3.325 8.771-2.263 2.821-.905 7.36-2.263 10.651-1.36 3.29-1.36 2.671-6.341 5.641-4.981 2.978-13.886 4.228-19.619 4.39-5.745.16-6.196 3.601-6.196 3.601s-6.033 2.348-3.17 3.448c2.869 1.1 3.931 0 8.604-1.571 2.286-.761 4.101-.742 5.96-.72 1.95.021 3.946.042 6.578-.84 5.125-1.727 16.901-3.758 21.737-1.88 4.828 1.88 4.675.621 7.246 2.19 2.565 1.572 3.923 3.451 9.06 2.041 5.124-1.409 5.58-.469 9.356 1.41 3.776 1.88 9.664 2.972 15.099.47 5.435-2.509 7.544 1.722 8.298 1.722.762 0-1.658-3.291-3.768-4.071-1.107-.413-2.582-.311-4.038-.207-1.333.093-2.653.188-3.664-.115-1.783-.516-4.726-2.263-4.897-3.917a1.337 1.337 0 0 1 .216-.932c1.097-1.711 3.56-1.861 6.041-.818.254.103.501.216.754.349 2.716 1.41 4.979 4.85 8.866 4.379 1.942-.235 3.649.432 5.23 1.101 1.581.667 3.035 1.335 4.471 1.099 2.872-.47 4.076-2.2 1.358-2.35-2.716-.161-5.134-3.139-8.151-3.76-2.882-.602-3.153-3.336-2.782-5.49l.064-.309c.081-.378.245-.755.498-1.128 1.142-1.798 3.95-3.593 6.45-5.922 3.016-2.821 6.033-6.891 8.451-11.283 2.418-4.39 8.451-15.82 9.666-28.513 1.203-12.69.578-24.157-.761-30.399-.817-3.826-4.675-9.083-7.394-14.102a92.882 92.882 0 0 1-3.014-6.122h-.01c-.18-.422-.372-.846-.56-1.276-1.442-3.311-2.855-7.013-4.266-11.244-2.564-7.682-3.779-11.281-7.247-18.331-3.47-7.05-10.264-17.232-14.494-22.722-1.377-1.776-2.708-3.355-4.12-4.784a35.896 35.896 0 0 0-1.84-1.74l-.028-.028a29.454 29.454 0 0 0-1.947-1.579c-1.983-1.505-4.203-2.83-6.856-4.091a26.129 26.129 0 0 0-4.285-1.596c-4.564-1.25-8.477-.894-13.83-1.373a29.715 29.715 0 0 1-3.062-.441c-4.856-.969-7.509-2.953-11.433-4.261-4.683-1.568-10.571-3.289-14.039-2.198-3.478 1.1-18.424 6.111-23.097 9.089-4.683 2.98-9.213 15.982-10.273 20.993l-.1.394a9.82 9.82 0 0 1-.833 2.173c-2.02 3.902-6.458 7.2-10.688 9.655-1.856 1.078-4.095 2.198-6.404 3.205-.209.092-.425.178-.634.273-3.876 1.662-7.889 2.978-10.626 3.262-4.528.471-7.998-.941-12.834-3.133-4.828-2.198-8.749-4.387-12.074-6.738-3.325-2.351-3.779-6.111-5.735-11.442-1.963-5.32-4.528-8.769-9.509-9.71-4.982-.941-9.366-.311-13.588-1.1-4.23-.78-5.29-2.971-9.366-6.732-1.042-.966-1.838-2.115-2.453-3.347-.163-.318-.31-.648-.445-.985-1.369-3.339-1.569-7.069-1.775-9.299a15.573 15.573 0 0 1 .406-5.206l.055-.207c.462-1.645 1.242-3.18 2.4-4.305 2.42-2.351 2.719-5.952 4.683-8.462 1.967-2.501 5.735-3.76 9.356-2.66.699.216 1.542.375 2.465.471 3.233.366 7.5.017 10.298-1.223.535-.244 1.025-.509 1.432-.819 3.171-2.35 3.171-8.61 2.265-12.84-.67-3.142-1.593-7.512-1.775-9.401l-.008-.046v-.019l-.011-.049c-.047-.592-.008-.901.135-.827.599.312 2.267-.941 4.53-1.727 2.265-.782 3.923 1.878 4.53 5.019.598 3.131 2.861 4.54 2.861 4.54s-.451-2.041-.451-4.39c0-2.35-.147-3.442.153-2.971.298.47 3.623.621 5.733-.32 2.12-.939 4.232-3.131 4.232-3.131s-4.683 1.721-7.402.941c-2.716-.78-4.528-3.451-6.341-4.39-1.021-.53-2.137.036-3.295.602-.894.439-1.815.878-2.736.808-2.12-.151-3.325.32-3.325.32s-.298-.63 0-2.671c.3-2.03 3.778-4.701 7.399-5.481 2.455-.526 5.329.377 7.673 1.401l.019.019c1.105.479 2.101.998 2.871 1.401 2.418 1.251 7.7 2.039 9.509.31 1.732-1.635 5.382-3.421 5.717-3.591-.272.047-2.455.49-3.468.93-1.07.471-4.812-.158-8.888-1.1-4.075-.939-4.075-2.189-4.075-2.189l1.205-.63c1.213-.621 2.118-2.66 2.572-4.23.453-1.56 3.016-.621 4.828.47 1.811 1.1 3.923 2.2 5.735 2.98 1.809.78 7.697-.941 7.697-.941s-3.014 0-5.733-.47c-2.716-.469-5.279-3.449-6.948-5.329-1.656-1.88-4.219-2.821-7.246-1.41-3.015 1.41-5.282 7.05-5.435 8.309-.1.893-1.838.104-3.596-.648-.686-.291-1.385-.583-1.983-.761-2.118-.63-8.151-.789-11.476 3.13-3.117 3.676-3.578 10.529-3.244 13.03v.008l.074.435c.453 2.039 1.965 8.459.905 12.219s-2.11 7.991-7.091 5.961c-4.984-2.042-3.172-2.669-3.172-2.669 1.36 0 3.923-1.253 4.53-5.172.598-3.913-3.478-8.141-5.137-10.339-1.658-2.192-.904-4.384-.453-6.111.435-1.637 1.413-4.71 1.505-4.994-.128.18-1.152 1.675-2.71 3.582-1.667 2.041-2.718 5.64-.451 8.15 2.038 2.257 3.088 3.497 2.951 6.223-.019.312-.043.64-.09.988-.451 3.44-2.716 3.131-4.981 5.791-1.332 1.579-1.73 3.15-2.537 4.652-.553 1.054-1.321 2.069-2.745 3.027a12.932 12.932 0 0 0-2.935 2.737c-1.258 1.57-1.746 2.906-1.746 2.906s.008-.236.008-.687v-.019c-.008-1.317-.128-4.437-.915-9.168-.353-2.17-.988-4.595-1.866-7.058-1.712-4.811-4.349-9.784-7.645-13.311-2.492-2.66-4.04-4.146-5.191-5.539l-.009-.008-.01-.009c-1.139-1.382-1.881-2.679-2.788-4.934-1.811-4.551-4.683-9.252-5.134-12.222-.456-2.98 1.058-7.052 2.416-10.03 1.358-2.98.752-4.231 1.967-5.481 1.205-1.259 2.41-2.671 2.109-4.701-.298-2.039-.606-4.229-2.264-6.58-1.659-2.35 1.813-3.76 3.623-5.96 1.73-2.096-.264-4.617-.443-4.833.733 2.181-.319 3.892-1.975 4.992-1.659 1.1-3.47 4.86-2.265 6.891 1.215 2.041 1.668 2.2 1.358 4.86-.298 2.66-3.621 2.19-5.578 3.451-1.967 1.25-2.12 3.289-3.931 3.76-1.814.468-3.924-1.1-3.317-2.98.598-1.88 3.018-2.98 5.435-7.211 2.409-4.229 1.36-8.61-.307-14.721-1.658-6.111-6.486-8.461-7.998-10.339-1.513-1.883-1.658-2.671-3.923-4.861-2.265-2.191-4.62-1.986-4.983-4.23-.37-2.247 3.319-1.571 4.376-3.292 1.06-1.719-.298-3.129-2.418-4.699-2.111-1.571-1.958-3.131-1.958-3.131-.605 1.09 1.36 4.231 2.718 5.481 1.36 1.249-1.213 2.819-3.17 3.29-1.964.471-.906 3.76 1.657 5.17 2.483 1.363 3.698 4.644 3.77 4.852-1.522-.931-5.735-1.09-7.845-.153-2.11.941-3.172 1.412-6.041 0-2.682-1.316-6.043-4.294-6.45-4.661 1.957 2.668 5.572 7.482 9.773 7.012 4.23-.469 3.172-1.098 8.153 0 4.983 1.1 7.998 3.45 11.623 9.091 3.621 5.64 1.211 7.991 1.211 7.991-.905-2.82-3.025-4.39-3.025-4.39s2.265 5.011 2.574 7.991c.281 2.8-1.712 6.015-1.947 6.382.061-.206.37-1.289-.173-3.254-.597-2.189-2.564-3.44-4.982-3.289-2.41.161-3.47 3.289-4.98 4.08-1.506.78-3.318-2.039-3.318-2.039s.452 3.131 2.566 3.599c2.11.471 2.716-1.56 4.372-3.131 1.669-1.57 3.027-.939 3.932.941.904 1.881.598 3.761-1.213 4.39-.662.225-1.24.81-1.632 1.609v.008c-.66 1.391-.723 3.441.426 5.435 1.812 3.129 5.437 4.54 7.998 4.85 1.134.142 1.767.676 1.994 1.333.29.837-.082 1.882-.934 2.586-1.511 1.251-1.658 7.52.607 10.651 2.265 3.141 5.281 8.62 5.281 8.62s.154.63-1.358-.309c-1.511-.941-3.468-3.292-6.188-3.762-1.27-.219-2.643.076-4.083.371-1.636.337-3.36.672-5.128.25-3.323-.78-5.435-2.029-5.888-5.321-.453-3.289-2.263-4.078-4.23-5.799-1.956-1.721-3.47-2.66-4.074-5.011-.599-2.35 1.058-2.821 1.81-5.169.759-2.351.906-4.231-1.206-6.582-2.11-2.348-6.793-2.2-8.902-2.98-2.12-.78-2.265-3.448-2.574-6.74-.298-3.29-.598-5.95-2.86-7.54-2.266-1.587-4.078-1.702-5.138 0-1.06 1.702-2.11 1.119-3.776.649-1.568-.441-2.6.933-2.708 1.092 1.213-1.081 2.571.317 4.673.949 2.112.619 1.203-1.729 3.325-2.509 2.11-.781 3.47 1.097 4.222 4.228.76 3.131.153 7.211 2.117 9.56 1.957 2.35 4.982 3.132 7.698 3.132 2.72 0 3.172 2.51 3.319 5.011.153 2.51-2.41 2.98-3.172 5.329-.752 2.35 2.12 4.39 2.12 4.39l-1.967-.318c-1.965-.31-6.186-1.09-9.21-1.88-3.017-.78-6.794-3.443-9.657-5.011-2.872-1.571-4.232.47-7.101 1.1-2.862.621-4.222-1.73-6.033-3.61-1.812-1.88-2.717-2.821-3.025-5.793-.3-2.978-1.358-4.078-3.623-4.548-2.265-.471-2.565 1.259-2.565 1.259s.608-.32 2.873 0c2.263.311 1.203 2.821 1.657 5.322.453 2.51 1.966 2.351.904 2.819-1.058.471-1.81 2.51-2.263 3.921-.453 1.41-2.42 1.41-4.98 1.098-2.564-.318-2.564-2.509-3.922-2.978-1.358-.47-3.625 0-6.197-1.1-1.576-.678-1.958-1.289-2.001-1.655-.039.799.261 2.726 3.668 3.694"/><path d="M25.025 57.499s1.856 1.752 3.91 3.71c2.07 1.957.828 6.305 5.571 7.18 4.752.862 3.091 1.085 7.224 4.347 4.12 3.265 7.005 1.958 6.386-1.304-.617-3.265 1.038-5.446 5.159-8.266 4.123-2.832 11.138.862 12.993 4.127 1.855 3.265-1.445 3.918-1.855 6.971-.408 3.044.41 9.35 6.188 10 5.775.654 6.186 2.402 12.162 7.627 5.99 5.223 5.572 4.346 8.872 8.694 3.306 4.362 9.28 6.32 9.28 6.32h-2.472c-2.475 0-6.808.862-9.69 3.265-2.896 2.387-3.306 6.738-6.397 6.959-3.095.221-9.69-6.53-12.994-8.92-1.967-1.431-3.345-.695-5.01.041-1.13.501-2.392 1.001-4.06.822-4.132-.43-3.711-3.916-5.371-7.613-1.646-3.695-3.094-9.568-3.094-9.568s.62 15.444 5.571 19.792c4.947 4.359 7.224.653 10.937.444 3.714-.221 5.768 6.306 12.165 7.389 6.398 1.098 8.253-1.513 10.109-4.348 1.855-2.832 5.15-2.832 9.689-4.348 4.54-1.528 11.543 1.737 14.849 6.309 3.303 4.569 8.872 11.095 14.441 14.268 5.569 3.162 13.808.312 13.808.312l-3.094 3.044c-3.091 3.044-8.451 10.666-8.451 10.666s-8.253 2.614-10.926 1.516c-2.687-1.084-8.66-4.569-12.993-8.043-4.33-3.485-7.846-3.055-11.556-2.611-3.714.43-5.57 1.737-8.66 2.39-3.098.651-6.387-4.138-6.387-4.138s-4.135-2.824-6.398-3.044c-2.265-.221-6.596 0-6.596 0s3.714.874 6.596 1.307c2.882.429 3.502 3.694 6.596 5.875 3.091 2.179 7.017 2.517 7.017 2.517s-1.027 2.052-4.124 4.663c-3.091 2.612-9.698 2.388-9.489 2.832.21.433 9.28.863 11.758-2.402 2.471-3.264 4.327-4.569 10.515-5.051 6.189-.471 9.899 3.317 13.401 6.579 3.515 3.265 7.424 5.222 7.424 5.222s-3.091 2.391-8.044 1.737c-4.946-.653-11.542-2.82-16.285-2.39-4.749.433-6.395 2.611-9.49 4.792-2.97 2.076-8.782.365-9.254.221.368.212 4.529 2.547 9.255 1.516 4.95-1.083 4.542-2.832 9.69-4.139 5.159-1.307 6.607 1.307 15.058 3.916 8.451 2.611 13.202 3.709 17.943 2.611l.125-.024c4.676-1.124 7.955-5.016 11.841-9.323 3.909-4.36 8.044-4.569 12.165-5.667 3.959-1.045 4.5-4.098 7.831-4.895l.422-.103c3.551-.627 8.228 5.313 8.624 5.834l.025.027c-.332-.106-6.286-2.155-10.309-1.725-.865.094-1.633.432-2.327.968l-.011.012c-2.637 2.064-4.194 7.05-5.494 12.729-1.646 7.183-.619 10.448-1.855 14.572-.458 1.528-1.139 2.847-2.09 4.021-1.635 2.037-4.085 3.695-7.6 5.34-5.569 2.611-10.516 1.083-15.678-1.737-5.161-2.835-4.333-5.876-8.451-6.75-4.135-.874-4.542 3.044-4.751 6.097-.201 3.044-2.475 6.529-6.596 9.137-4.12 2.614-7.014 2.614-9.69 1.31-2.684-1.31-3.512-4.362-3.303-7.403.21-3.044 1.646-5.446-2.065-8.487-3.53-2.888-6.869-5.002-7.19-5.196.257.3 2.36 2.661 4.305 3.892 2.068 1.304 3.094 4.565 1.859 6.526-1.242 1.958-.62 7.18-.62 7.18-1.498-.574-4.804-3.25-6.573-4.793 1.2 1.334 3.206 3.671 5.605 5.891 2.168 2.037 4.665 3.983 7.154 4.999 6.397 2.611 11.138.432 11.138.432s3.091 1.734 4.737 5.223c1.66 3.485.619 6.526-1.027 10.014-1.509 3.197-5.641 6.2-6.311 6.683.299-.144 1.437-.68 4.665-2.117 3.912-1.748 6.189-4.789 7.215-10.012 1.027-5.222-1.448-11.319-1.448-11.319s-1.029-.653 0-2.39c1.041-1.737 3.513-6.75 7.226-6.306 3.566.418 6.56 3.642 12.079 6.397l.703.339c5.979 2.835 10.111.653 14.639-2.167 4.542-2.832 9.492-9.582 9.492-13.056 0-1.003.393-2.037 1.038-3.079.223-.356.471-.718.734-1.086 1.654-2.258 4.168-4.622 6.062-7.153 3.092-4.139 6.805-7.404 11.136-6.527 4.333.874 4.333 5.652 5.37 10.221 1.027 4.569 5.569 7.624 10.307 16.974 4.74 9.361 10.73 11.972 14.02 12.623 1.398.277 2.835 1.136 4.232 2.311h.014c1.892 1.595 3.697 3.736 5.246 5.746 2.003 2.585 3.883 4.702 7.695 6.959 1.3.769 2.82 1.552 4.665 2.388h.014c6.952 3.147 14.885 1.242 15.429 1.11l.039-.012c-2.478 3.474-1.239 7.833.209 10.654 1.437 2.831 2.056 5.663 2.265 9.361.21 3.694-.41 6.529 3.711 11.528 4.121 5.013 7.215 2.402 9.492 4.139 2.266 1.737 1.437 5.222-2.475 7.612-3.923 2.403-4.33.221-8.663-.653-1.73-.345-3.328-.206-4.757-.068-2.146.209-3.909.418-5.142-1.015l-.061-.065c-2.129-2.391-9.057-6.035-13.97-6.241-4.953-.224-8.451 6.526-9.28 9.138-.817 2.614-4.333 3.694-4.333 3.694l-.025-.012c-.433-.171-6.236-2.467-8.214-4.778-2.067-2.39-7.017-2.611-8.663-5.875-1.657-3.265-5.159-6.309-7.846-7.18-2.673-.863-11.135 2.178-11.135 2.178s-3.292-3.694-1.967-5.873c1.323-2.181.112-4.572 0-6.75-.125-2.17-3.602-1.083-3.602-1.083s2.068 1.954 2.277 3.915c.195 1.958-2.277 3.041-2.896 5.443-.62 2.39 2.687 5.222 2.687 5.222l-4.543 1.307s-5.569-1.748-8.663-3.709c-3.094-1.957-3.713-1.957-3.713-1.957s4.751 5.666 8.256 6.526c3.501.877 3.094 2.405 10.331 1.531 7.24-.877 5.544-1.531 10.086-1.737 4.542-.224 6.805 5.873 6.805 5.873s-4.737 2.169-5.569 3.918c-.829 1.737-2.065 3.695-4.118 4.124-2.07.445-3.306 1.961-3.515 5.017-.201 3.041 0 6.735 0 6.735s1.445-1.958 1.236-4.778c-.196-2.835.831-3.709 3.713-4.139 2.893-.43 4.135-1.083 5.778-4.572 1.646-3.485 4.33-3.261 9.283-.771a4246.25 4246.25 0 0 1 10.108 5.122s-.828 3.486-.619 6.971c.198 3.474 1.855 3.265 1.646 6.082-.209 2.835-4.738 4.793-4.738 4.793s3.499 1.528 5.765-1.304c2.276-2.835 2.276-6.306 2.686-9.571.408-3.264 1.236-4.359 5.357-6.971 4.132-2.614 6.398-5.431 10.109-6.529 3.713-1.083 8.663 3.485 11.545 4.569 2.896 1.098 10.32-.43 15.27-1.083 4.952-.654 9.69-.221 12.377-2.079 2.673-1.863 1.646-6.406 1.236-10.547-.374-3.604-2.612-5.052-5.223-6.957l-.025-.014a32.209 32.209 0 0 1-1.15-.863c-3.094-2.387-4.542-3.474-4.542-10.221 0-6.75-.198-11.319 2.065-15.446.359-.665.795-1.281 1.266-1.852l.023-.017c1.607-1.981 3.836-3.471 6.149-4.307 1.239-.456 2.5-.73 3.702-.798 4.118-.209 6.398 1.098 9.687 5.667 3.304 4.572 7.017 12.405 11.347 17.407 4.331 4.998 6.805 11.319 7.015 15.234.078 1.581.125 2.911.078 4.398-.014.394-.039.801-.064 1.216v.012c-.137 1.96-.447 4.336-1.052 7.859-1.236 7.183-.198 21.113 0 28.505.209 7.401 7.226 16.762 12.993 21.764 0 0 9.899-.433 20.418 3.485 10.515 3.916 17.943 11.958 17.943 11.958s-.821-7.61-4.121-13.265c-.335-.574-.656-1.121-.955-1.642l-.011-.015-.262-.43c-1.892-3.265-3.34-5.617-6.013-8.996l-.047-.053a121.05 121.05 0 0 0-3.019-3.668c-2.723-3.197-4.902-5.758-6.71-8.263-1.892-2.612-3.376-5.158-4.64-8.267-2.126-5.248-3.192-20.315-3.711-29.544-.086-1.501-.15-2.846-.209-3.971a57.863 57.863 0 0 0-.1-1.631v-.014c-.458-7.127-1.485-11.97-3.404-19.468-2.065-8.039-9.071-14.569-11.545-18.928-2.472-4.348-6.805-9.792-9.489-13.71-2.687-3.915-7.634-4.778-12.586-6.529-3.959-1.395-8.981-1.251-10.829-1.133l-.234.011-.357.027-.123.012-.014-.039c-.198-.288-1.448-2.428-1.632-6.058-.209-3.915.818-3.695 5.145-5.431 4.333-1.749 7.846-9.362 10.111-13.056 2.266-3.709 3.714-8.054 2.885-15.014-.817-6.973-4.531-14.804-9.481-17.627-4.949-2.832-4.949-2.611-3.922-3.265 1.026-.65-.411-4.139 2.067-7.83 2.475-3.709 4.528-1.752 7.622 1.734 3.095 3.488 5.779 6.529 10.519 7.403 4.553.822 11.171-2.322 11.715-2.596-.432.091-4.031.859-9.438 1.068-5.781.221-5.162-.874-7.227-6.096-2.056-5.222-4.528-6.085-4.528-6.085s4.118.654 7.424-3.485c3.293-4.139 4.119-4.569 6.593-6.306 2.475-1.749 5.979.862 5.979.862s-1.436-2.39-3.911-3.264c-2.475-.863-3.513-.209-5.368 2.832-1.861 3.044-4.953 4.348-8.663 3.918-3.714-.433-10.098 2.832-13.195 5.001-3.091 2.179-4.751 10.666-5.778 13.498-.717 1.957-1.928 2.455-3.861 3.161-.837.312-1.816.666-2.941 1.187-3.713 1.737-6.596 1.528-12.993-1.528-6.35-3.015-5.792-12.049-6.387-17.704l-.011-.13a11.65 11.65 0 0 1-.075-1.828c.123-4.309 2.659-6.408 5.025-12.755 2.684-7.18.828-18.932-2.478-25.029-2.028-3.747-3.426-4.686-5.267-5.104-1.153-.288-2.464-.353-4.211-.771-4.539-1.084-7.421-5.876-9.701-8.487-2.262-2.611-1.434-4.566-.407-9.568 1.027-5.001 5.159.65 8.253 2.388 3.094 1.748 6.188-.43 9.28-3.916 2.946-3.317 8.897-12.964 9.43-13.853-.594.589-6.149 6.267-10.05 10.589-4.132 4.569-8.043 3.055-11.553.441-3.281-2.44-4.582-1.445-4.729-1.316.273-.38 4.528-6.438 4.528-10.653 0-4.348-2.896-5.876-2.896-5.876 2.279 2.611 1.448 5.222-1.434 8.057-2.896 2.817-3.304 6.082-4.755 11.749-1.431 5.652 1.044 10 1.044 10s-3.516-2.82-5.781-3.918c-1.281-.612-3.292-.041-5.357.53-1.585.435-3.2.874-4.542.78-3.094-.212-2.684-8.92-3.714-10.877-.789-1.502-3.635-3.512-4.921-4.375 2.907 2.39 4.564 11.216 5.331 15.693.832 4.778 7.015 2.82 11.138 2.167 4.132-.653 2.475-.653 6.802 5.013 4.333 5.655 9.085 7.392 12.377 7.834 3.206.418 4.849 4.922 4.938 5.21-.075-.038-.449-.276-2.463-1.513-2.475-1.528-5.357-.877-8.859.65-3.515 1.529-4.542 4.573-8.465 5.653-3.911 1.098-4.949-3.474-7.003-6.303-2.067-2.835-2.477-1.307-6.609-1.086-4.121.209-7.425-.874-10.926-2.832-3.502-1.958-3.094-8.266-3.094-8.266s-1.644 5.222 1.448 9.57c2.993 4.207 8.105 3.12 8.44 3.056-.148.209-1.596 2.31-.818 5.001.829 2.82-.817 4.999-4.528 5.432-3.714.441-3.513 3.261-3.513 3.261s3.301-1.734 6.607-1.957c3.29-.206 4.118-1.958 3.714-6.085-.424-4.136.814-4.136 4.528-3.706 3.711.441 6.607 6.526 11.754 8.487 5.159 1.957 9.28-3.918 12.994-6.736 3.71-2.835 7.226 1.955 8.462 6.527.619 2.284.882 4.192.508 6.214-.357 2.01-1.337 4.124-3.192 6.841-2.291 3.356-2.227 6.135-1.844 7.769l.025.088c.198.76.443 1.257.544 1.425l.011.039c-.234-.142-2.104-1.384-5.951-2.791-4.132-1.531-9.085-1.307-14.23-1.307-5.161 0-10.727 2.82-13.205 3.694-2.472.877-4.327-2.387-8.253-5.222-3.909-2.832-8.858-3.695-8.858-3.695l-5.371 3.695s1.66-.221 4.333-1.083c2.681-.878 5.569.653 7.014 3.041 1.448 2.39 6.398 5.655 6.398 5.655s-2.475 1.304-6.607 1.304c-3.898 0-8.549-.966-9.034-1.069.694.274 12.929 4.96 19.351 4.124 6.3-.836 9.222-2.858 9.47-3.041-.089.156-.857 1.514-1.635 4.778-.829 3.486 1.855 6.527 1.855 6.527s.212 1.736-3.71 0c-3.923-1.734-3.923-3.695-9.492-4.139-5.569-.43-4.741 3.055-4.741 3.055l3.502-1.525c3.515-1.53 6.188.875 8.875 3.916 2.684 3.041 5.778 1.957 5.778 1.957s.196 4.793-3.306 6.75c-3.499 1.958-15.875.863-15.875.863s5.569.874 12.164 1.749c6.596.862 5.977-.875 9.69-4.36 3.711-3.474 3.711-10.654 1.448-15.226-2.265-4.568 3.304-6.75 8.253-8.484 4.95-1.751 6.186 1.084 11.953 5.873.457.38.854.76 1.2 1.151 4.009 4.425.828 8.982.46 12.991-.424 4.348 1.434 4.348 2.472 6.527 1.015 2.155 2.835 9.82 10.619 11.257l.307.062c8.044 1.307 10.73-.221 11.35-3.053.616-2.82 2.053-2.39 4.327-1.961 2.266.445 6.188-2.387 7.835-4.345 1.646-1.96 3.501 1.737 6.188 5.873 2.684 4.139 2.882 11.098 0 17.195-2.882 6.085-7.835 11.752-12.993 13.265-.684.209-1.312.433-1.92.692h-.011c-3.995 1.672-6.52 4.48-9.207 8.448-3.092 4.569 1.239 12.403 1.239 12.403s-2.057 2.01-4.9 3.641h-.014c-.879.512-1.83.98-2.834 1.334l-.048.011c-.954.354-1.945.601-2.932.68-5.36.43-11.138-3.709-15.259-6.096-2.201-1.281-3.524-2.809-4.712-4.557-1.041-1.516-1.995-3.185-3.332-5.014-2.882-3.918-3.713-10.235-8.253-15.237-3.872-4.268-11.358-5.051-15.515-6.959-.72-.327-1.326-.677-1.808-1.095-3.29-2.82-4.95-10.003-7.215-16.753-2.263-6.75-8.251-18.278-16.406-20.457-8.169-2.166-15.766-1.086-21.955.224-1.917.403-3.66.783-5.368 1.095-3.814.692-7.402 1.031-11.955.43-6.596-.874-8.253-5.876-8.87-9.361-.619-3.486-3.912-6.306-5.979-8.708-2.065-2.39-1.855-2.82-.407-5.655 1.434-2.832-1.239-4.569-.62-6.306.62-1.748 3.502-1.748 6.805-2.178 3.293-.433 4.741-1.958 4.741-1.958s5.158 1.958 9.491 1.525c4.33-.442 4.529-6.75 5.148-9.361.617-2.608 4.751-2.832 7.226-2.832 2.475 0 3.094-3.695 3.094-3.695s-3.713 1.737-6.805 2.182c-3.094.43-4.333.206-5.781 2.817-1.445 2.611-.209 6.1-2.686 7.833-2.472 1.752-8.041-1.957-8.041-1.957s0-4.348-2.054-9.35c-2.067-5.01-3.094-6.526-6.609-10.012-3.502-3.485-6.384-5.443-9.071-5.652-2.684-.224-6.593 1.513-9.068 2.82-2.477 1.305-4.344 1.084-6.61-5.001-2.25-6.085.623-11.973.623-11.973s-3.097 4.14-3.295 6.527c-.21 2.405 1.646 7.404 2.053 8.71.425 1.305-4.327-1.306-7-3.485-2.6-2.102-5.2-4.01-5.36-4.1.1.273 1.089 2.622 5.148 6.502 4.33 4.124 8.044 2.609 8.044 2.609s3.92 2.823 5.976 2.614c2.068-.224 4.542 0 7.226-2.403 2.673-2.39 5.148 1.096 5.148 1.096s-3.094 1.516-5.569 4.571c-2.472 3.041 0 3.262.209 5.873.201 2.467-3.635 1.634-4.082 1.528 4.096 2.376 6.348-.027 6.153-2.402-.215-2.39.404-5.223 3.498-5.876 3.094-.65 7.835 3.265 10.31 8.71 2.472 5.43.828 9.347-2.475 10.222-3.292.874-8.242.22-10.307 3.918-2.067 3.694-1.858 10.665-1.858 10.665s-9.69-1.957-13.203-4.569c-3.504-2.61-4.949-4.792-9.282-8.707-4.33-3.919-4.947-4.348-8.239-6.306-3.306-1.96-7.846-1.752-9.28-2.835-1.45-1.083-1.66-6.75.815-9.57 2.478-2.832 1.66-6.971-3.71-11.54-5.36-4.572-14.024-3.044-16.708-1.516-2.673 1.516-6.185-1.304-8.858-3.485-2.684-2.179-1.657-8.058-3.094-10.875-1.448-2.835-6.398-1.307-9.902-2.181-2.832-.707-3.103-1.266-3.103-1.463-.061.341-.111 2.116 4.132 4.074 4.74 2.178 3.923-.43 6.596 2.832 2.687 3.265.829 8.487 3.714 11.098 2.893 2.611 9.081 3.918 9.081 3.918s-2.28.86-3.923 2.388c-1.646 1.527 1.448 5.446.408 6.308-1.027.875-2.475-2.39-4.33-4.572-1.856-2.166-2.475-1.083-5.36-.653-2.882.444-3.502-3.04-5.57-6.306-2.064-3.261-4.737-2.181-4.737-2.181"/></g><defs><clipPath id="a"><path fill="#fff" transform="translate(-1081 -584)" d="M0 0h1440v1024H0z"/></clipPath></defs></svg>