<svg width="281" height="293" fill="none" xmlns="http://www.w3.org/2000/svg"><g fill="#fff" clip-path="url(#a)"><path d="M174.366 163.11c3.127.266 10.597-3.521 7.466-13.066-3.135-9.543-3.712-11.867-8.282-16.443-4.569-4.573-11.977-6.742-17.29-6.817-.966-.012-2.015.031-3.117.075-4.965.196-11.006.392-15.294-4.614-5.239-6.119-2.3-9.391-5.053-13.118-2.754-3.726-7.955-8.35-17.331-6.469-9.375 1.879-11.362 6.104-16.295 6.411-4.931.308-10.904-1.395-10.624-5.584.281-4.183 4.54-9.63 5.937-14.253 1.396-4.622 3.5-11.645.115-15.42-3.387-3.777-11.413-7.927-16.992-5.743-5.58 2.183-10.811 6.85-12.248 11.82-1.437 4.973-1.37 6.204 4.43 12.982 5.802 6.774 4.827 11.432 1.085 14.288-3.744 2.856-8.032 6.723-7.253 9.151 0 0-1.395-4.406 2.408-7.785 3.804-3.378 7.057-7.502 4.22-10.534-2.834-3.033-6.902-8.266-8.75-12.447-1.848-4.182-1.474-5.555-1.474-5.555s-4.715 2.08-9.659-1.123c-4.946-3.199-13.524-2.657-13.524-2.657s2.185-2.28 6.171-1.788c3.986.496 8.278 3.82 13 3.495 4.72-.324 5.054-1.35 8.708-5.265 3.654-3.915 7.895-9.19 15.757-9.085 7.864.101 14.3 1.494 16.57 5.707l2.271 4.215s-1.99-8.401-1.2-11.495c.79-3.093-2.894-13.38-8.9-18.42-6.004-5.04-8.221-6.092-14.114-3.057-5.892 3.038-10.573 8.447-18.11 5.565-7.537-2.88-11.16-8.257-17.427-9.282-6.264-1.028-7.502.452-10.715 4.23-3.21 3.772-8.633 6.145-11.273 7.163C14.938 49.208 14 49.657 14 49.657s4.226-3.344 7.696-5.695c3.47-2.353 5.954-8.994 11.853-10.275 5.898-1.282 8.49-1.601 13.986 2.345 5.494 3.947 6.467 4.726 10.815 5.776 4.346 1.047 7.735-.61 7.735-.61s-7.9-1.615-7.493-6.878c.407-5.262 3.892-9.543 5.227-13.642 1.334-4.104 1.137-6.048 4.653-6.994 3.519-.945 6.56-5.088 6.323-6.684 0 0 .836 3.75-2.273 6.658-3.11 2.907-4.98 4.336-6.112 6.701-1.13 2.363-4.064 7.388-3.84 10.914.223 3.524-.5 7.85 6.011 6.793 6.51-1.059 5.131-3.799 13.355-3.141 8.225.658 15.692 7.741 20.363 16.882 4.67 9.142 4.143 15.413 4.27 21.558.129 6.147-3.438 11.124-5.657 15.504-2.219 4.382-3.077 6.242-.458 7.504 2.618 1.26 8.98-.336 15.449-1.045 6.469-.71 16.211-.28 21.446 7.676 5.235 7.959 5.975 14.329 10.179 16.595 2.944 1.584 3.782 1.54 6.344 1.499a58.33 58.33 0 0 1 4.539.073c6.769.365 6.829-.157 12 1.134 5.17 1.289 4.965 3.025 7.59 6.044 2.625 3.013 3.905 1.187 8.406 4.529 4.503 3.34 4.107 14.955 5.322 19.886 1.212 4.934 2.327 7.345-1.37 11.623-3.697 4.28-8.963 5.613-8.963 5.613s-4.306-1.395-6.231-3.129c-1.923-1.732-.799-3.761-.799-3.761"/><path d="M314.917 79.032 290.314 77s.033.952-.268 2.345c-.28 1.295-2.151 9.234-4.723 12.885l-.001.006a6.56 6.56 0 0 1-.285.382 6.076 6.076 0 0 1-.289.344c-2.279 2.54-6.707 8.44-11.698 12.429-.138.109-.274.212-.402.314-1.142.885-2.313 1.659-3.49 2.27-6.485 3.362-9.394 5.724-18.035 9.729-6.962 3.232-15.818 8.837-21.287 13.792l-.009.008-.001.013c-1.318 1.196-2.441 2.343-3.286 3.414-3.542 4.486-10.704 15.233-15.03 22.658l-.001.007-.094.17a77.846 77.846 0 0 0-2.41 4.421c-3.249 6.586-7.1 8.749-15.787 8.265-5.998-.332-10.704-2.352-14.554-5.76l-.106-.094-.007-.008c-1.685-1.506-3.205-3.284-4.599-5.299-1.359-1.961-3.175-3.771-5.332-5.224a22.082 22.082 0 0 0-1.839-1.109c-3.178-1.701-6.917-2.648-10.89-2.33-5.839.46-10.031 1.878-14.584 4.875l-.496.328-.009.007a59.351 59.351 0 0 0-3.942 2.956c-6.542 5.313-7.419 12.059-6.671 15.579.748 3.514 4.169 7.248 5.342 9.74 1.172 2.493 3.025 9.025.674 11.397-.932.943-1.527 1.489-2.151 1.848l-.115.062c-.921.491-1.967.596-4.3.914-4.01.554-8.325 1.885-13.463 4.027-.254.105-.508.219-.771.332a35.81 35.81 0 0 0-.722.338c-.878.409-1.764.867-2.634 1.349-.303.166-.595.326-.881.493-.294.168-.587.335-.865.51-.572.336-1.117.673-1.648 1.013-.269.168-.538.338-.79.508-1.897 1.233-3.371 2.323-3.981 2.861-.5.441-1.141.877-1.825 1.252-1.192.675-2.514 1.168-3.444 1.147-1.453-.034-2.506 1.027-4.374 1.85-1 .441-1.306.302-1.831.163-.457-.122-1.078-.243-2.46.015-2.977.554-3.508.681-5.468-1.253-1.969-1.934-2.867-5.013-2.056-7.52.8-2.506 0-4.606-1.144-6.473-1.137-1.866-.405-3.754-.708-5.637-.3-1.888-3.707-2.17-3.707-2.17 2.67 1.191 2.08 1.852 2.045 3.975-.033 2.124-.009 3.728-.009 3.728-1.016-2.041-6.67-3.571-8.937-3.758-2.268-.188-3.08-1.318-4.65-2.156-1.57-.838-5.022 1.186-5.022 1.186s1.318-.6 2.77-.572c1.455.029 3.151 1.586 4.935 2.358 1.786.771 6.685 1.615 9.392 3.433 2.707 1.818 2.487 2.863 2.196 6.298-.292 3.427.308 7.375 1.746 9.358 1.442 1.976 4.04 3.786 8.165 4.126 3.991.33 8.254-1.643 8.518-1.77l-.116.14a8.05 8.05 0 0 1-.347.425l-.05.06c-.952 1.197-2.998 3.961-4.206 7.037-1.163 2.966-2.025 4.766-2.106 6.85-.033.812.06 1.67.296 2.661.848 3.522 1.125 7.443 1.04 10.102-.103 2.641-2.112 5.664-4.22 7.802-2.124 2.12-4.254 6.196-5.768 6.78-1.533.583-6.001.568-7.975-.389-1.972-.958-2.995-3.877-2.422-5.247.57-1.371 1.079-4.873.308-7.247-.72-2.214-3.625-3.835-3.986-4.021 1.116 1.091 2.051 3.62 2.089 5.198.017 1.595-.606 3.408-.606 3.408s-3.197-2.929-5.708-3.753c-2.224-.729-5.084-.824-5.716-.833 2.996.161 6.881 3.608 8.34 5.21 1.478 1.632 1.89 2.552 1.6 4.215-.289 1.657 1.521 5.795 4.279 6.285 2.758.491 5.648-.242 5.648-.242s-.386.677-1.535 1.553c-1.134.885-2.477.774-4.423 1.407-1.947.64-2.23.44-4.038.729-1.807.297-2.772 1.458-4.982 1.716-2.212.264-3.674.234-5.847 1.996-2.176 1.777-3.322 5.396-4.288 7.443-.957 2.048-3.182 4.258-4.45 5.302-1.268 1.051-3.213.799-4.463 1.758-1.258.959-2.513 3.783-2.513 3.783 1.274-2.114 3.927-3.482 5.801-3.42 1.859.062 3.878-3.046 3.878-3.046-.712 1.714-.875 4.974-.203 7.341.663 2.351 1.81 2.361 3.872 3.417 2.061 1.057 4.23 1.235 4.23 1.235s-2.59-1.901-4.1-2.379c-1.51-.48-2.716-1.728-2.754-3.233-.036-1.513-.19-6.579.871-7.64 1.063-1.06 3.573-3.957 3.824-6.147.25-2.198 2.611-3.775 3.227-3.633.601.136-1.094 2.3-.969 3.904.125 1.606.745 5.377 1.201 7.718.458 2.342 1.063 4.341 3.99 4.228 2.926-.112 3.99-2.151 5.04-2.156 1.033 0 3.248 1.601 3.248 1.601-.695-1.206-2.144-3.098-3.923-2.983-1.787.115-2.445 1.308-3.951 1.8-1.521.491-1.676-.847-2.144-3.104-.477-2.25-.088-8.42.63-10.133.72-1.713 1.211-1.494 2.753-1.282 1.531.219 3.205-.799 4.649-1.558 1.445-.773 4.706-1.12 6.532-1.587 1.82-.473 3.808-2.435 5.468-3.276 1.661-.833 3.088-1.516 4.446-2.468 1.356-.951 7.45-8.769 8.952-11.926 1.508-3.156 2.006-7.538 1.914-9.502a98.087 98.087 0 0 0-.133-2.109c-.138-1.933-.314-4.257-.233-5.625.12-1.939 2.593-5.364 3.335-7.344.667-1.767 1.369-4.571 4.521-7.606l.225-.217c.317-.306.669-.611 1.045-.912 4.242-3.463 7.886-4.396 9.449-4.451 1.527-.036 6.924-1.879 7.192-1.964-.014.048-.102.24-.228.541l-.001.007c-.319.753-.87 2.153-1.146 3.407-.425 1.829.221 2.59.643 3.419.429.829-.35 2.183 1.759 3.774 2.108 1.592 4.206 3.275 5.469 4.975 1.263 1.698 1.923 5.914 1.84 7.594-.084 1.68-1.079 3.986-4.578 5.468-3.499 1.483-9.149 2.697-10.969 4.055-1.82 1.36-3.05 2.938-4.534 4.14-1.487 1.21-3.047 1.167-5.506 2.651-2.459 1.483-4.333 1.498-5.181 2.583-.857 1.085-1.087 3.1-1.895 4.713-.81 1.62-2.218 3.9-2.218 3.9s1.486-1.125 2.44-2.195c.954-1.069 1.97-2.672 2.207-3.801.229-1.136 1.685-2.078 3.493-2.377 1.806-.289 4.354-1.674 4.354-1.674-1.172 1.144-1.622 4.211-1.134 6.286.488 2.075-1.259 5.566-1.259 5.566 1.055-1.068 2.718-3.766 2.41-5.648-.303-1.883 1.207-5.04 2.427-5.739 1.218-.693 2.658-3.232 3.3-4.334.648-1.095 3.726-2.527 6.034-2.691 2.233-.156 6.076-1.519 6.318-1.598-2.803 1.809-2.286 3.618-1.427 5.283.843 1.664 2.776 2.972 4.255 4.604 1.479 1.633 1.359 2.685.744 5.377-.615 2.692-3.635 5.37-5.22 6.565-1.602 1.2-2.878.563-4.293 1.155-1.337.555-2.298 2.694-2.411 2.961.657-1.094 2.327-2.083 4.353-1.738.546.094 1.005.02 1.372-.142l-.124.153c-.847.993-.942 3.65-.12 4.69.764.97 2.706 2.051 2.949 2.178-1.055-.824-3.161-3.89-2.136-5.656 1.035-1.778 4.521-5.034 4.521-5.034s-.161.525.27 1.271c.44.744 2.197 1.768 3.354 2.573 1.157.804.062 3.11.062 3.11s.925-.81 1.223-2.558c.308-1.746-2.617-2.605-3.223-3.632-.608-1.029.486-2.442 2.377-5.297 1.883-2.857-1.735-6.699-1.047-6.374.43.2.853.158 1.59.115.441-.026.995-.05 1.73-.025 1.964.077 2.579 1.106 3.383 2.237.812 1.129.101 3.722.101 3.722 2.163-1.679 1.451-4.487-.263-5.955-1.698-1.465-4.003-1.394-6.015-2.006-2.013-.606-3.975-1.653-5.111-3.521-1.136-1.864.624-2.689 3.388-4.149 2.763-1.458 3.226-2.745 4.195-5.763.969-3.024 1.065-6.644 1.065-6.644s3.474 1.52 4.018 3.167c.539 1.631 1.21 3.997.98 6.013-.23 2.015-1.266 4.68-1.193 6.812.065 2.131 2.173 3.722 2.173 3.722s-.018-.71-.535-1.73c-.5-1.013-.467-2.25.114-3.705.583-1.462 2.267-4.334 2.303-6.542.052-2.214-2.023-5.044-3.148-6.995-1.135-1.957-4.029-3.082-5.481-3.995-1.453-.922-2.03-4.69-4.703-6.804-2.674-2.105-3.205-4.751-2.679-6.954.473-1.966 4.492-4.79 6.388-5.943.224-.131.419-.242.57-.329 1.485-.827 5.049-1.709 7.479-3.521 2.428-1.806 2.302-5.594 3.959-6.761 1.664-1.159-.264-2.501-1.116-4.812l-.093-.284.002-.014a12.616 12.616 0 0 1-.261-.78c-1.022-3.387-2.965-11.245-3.861-13.091-1.01-2.097-1.389-4.843 3.064-9.79 3.881-4.321 10.611-3.908 15.594-2.191.721.243 1.414.52 2.046.814.443.206.873.447 1.292.722 4.301 2.802 7.258 8.85 9.24 10.304 2.183 1.597 1.598-.577 1.937-1.137.113-.189.583.077 1.306.59.185.128.385.273.6.432 1.468 1.071 3.635 2.731 6.001 3.883 2.966 1.45 3.812 1.47 4.75 1.428l.108.001c.31-.016.645-.032 1.081.005 1.444.118 3.527.986 6.471 1.307.698.078 1.451.127 2.25.122l.141-.003c4.108-.022 7.654-.82 14.819-4.665 4.673-2.505 9.672-8.379 13.911-14.671a92.817 92.817 0 0 0 2.386-3.694 114.136 114.136 0 0 0 3.753-6.558c2.325-4.407 5.088-7.97 7.793-10.596.215-.209.422-.412.635-.6 2.633-2.427 5.196-3.958 7.233-4.52 4.298-1.182 14.044-5.099 19.733-6.285 1.074-.224 2.241-.604 3.444-1.077.165-.065.323-.13.488-.194 5.014-2.059 10.447-5.615 12.072-6.502 2.076-1.125 14.397-9.442 23.167-20.645 8.771-11.211 7.365-24.44 7.365-24.44Z"/></g><defs><clipPath id="a"><path fill="#fff" transform="translate(-1159 -39)" d="M0 0h1440v1024H0z"/></clipPath></defs></svg>