<svg width="1440" height="391" fill="none" xmlns="http://www.w3.org/2000/svg"><g clip-path="url(#a)"><path d="M1321.68 60.412c.86 2.278 1.7 4.553 2.55 6.831-1.8 2.292-4.04 3.69-6.34 3.954 1.43 2.23 2.85 4.46 4.28 6.69-2.26.15-4.48 1.42-6.28 3.594l6.59 7.442c-3.1 1.545-6.2 3.093-9.29 4.638 1.84 2.919 4.26 4.875 6.82 5.516-2.88 2.837-5.76 5.673-8.63 8.51 3.12 1.663 6.07 4.171 8.68 7.387l-13.53 6.243c2.97 3.445 5.92 6.89 8.89 10.335l-12.72 8.506c4.16 4.369 8.95 7.236 13.89 8.323-4.28 2.083-8.58 4.164-12.86 6.247-1.48-3.508-2.8-7.091-3.93-10.739-.67 9.168-5.65 17.416-12.08 23.63-1.6-.429-3.22-.854-4.82-1.282l8.85-6.594c-4.82-2.165-9.84-3.255-14.84-3.228 6.84-2.592 13.48-6.534 19.72-11.709l-12.63-6.111c1.85-2.884 4.04-5.223 6.4-6.863-2.27-.816-4.56-1.635-6.85-2.452 2.12-2.04 4.24-4.079 6.35-6.119-2.81-.601-5.63-1.202-8.45-1.804l10.35-7.815c-4.12-.814-8.24-1.629-12.35-2.445l5.04-3.843c-2.94-1.108-6-1.513-9.03-1.195 2.34-2.378 4.66-4.756 7-7.135-.94-.727-1.97-1.113-3.01-1.157 1.35-.216 2.67-.835 3.88-1.844-6.71-8.874-12.07-21.244-12.76-35.114-2.48 12.015-5.88 23.545-10.1 34.26.49 1.29.96 2.583 1.45 3.873-1.02 1.301-2.3 2.093-3.59 2.241.81 1.266 1.61 2.532 2.42 3.794-1.29.087-2.54.808-3.56 2.039 1.25 1.406 2.49 2.814 3.73 4.221-1.75.875-3.5 1.755-5.26 2.631 1.03 1.652 2.41 2.764 3.86 3.126l-4.89 4.828c1.78.942 3.45 2.364 4.92 4.189-2.55 1.179-5.11 2.36-7.67 3.54l5.04 5.858c-2.4 1.61-4.81 3.218-7.21 4.826 2.36 2.478 5.07 4.104 7.87 4.721-3.28 1.593-6.55 3.186-9.84 4.781 3.12 3.323 6.82 5.212 10.57 5.382-5.16 4.181-10.44 7.96-15.82 11.31.14.487.31.94.48 1.403-.78-.362-1.6-.589-2.45-.626.87-.905 1.74-1.812 2.6-2.715a6.812 6.812 0 0 1-3.85-1.605c.52-.926 1.03-1.849 1.55-2.774a115.235 115.235 0 0 1-10.86-24.519c-.72 9.924-6.49 18.778-13.69 25.132 1.29.722 2.71 1.163 4.15 1.32a7.44 7.44 0 0 0-3.21.827c2.5 1.702 5.01 3.404 7.5 5.106-3.25-.227-6.53.062-9.7.853 1.81.919 3.61 1.837 5.42 2.753-1.82.24-3.64.48-5.46.722a116.225 116.225 0 0 1-9.1-21.452c-.73 9.925-6.49 18.778-13.69 25.131 1.29.721 2.71 1.164 4.15 1.319-1.1.033-2.22.307-3.22.829 2.5 1.703 5 3.405 7.51 5.106-2.73-.191-5.48.007-8.17.537-1.66-.506-3.3-1.013-4.95-1.518a17.645 17.645 0 0 1 5.29-2.997c-1.75-1.154-3.5-2.304-5.25-3.456a7.447 7.447 0 0 0 4.15-2.238c-1.89-.628-3.77-1.256-5.65-1.885l4.01-3.017a6.601 6.601 0 0 0-3.83-1.459c.87-.905 1.73-1.812 2.6-2.715a6.812 6.812 0 0 1-3.85-1.605c.51-.926 1.04-1.849 1.55-2.774a115.706 115.706 0 0 1-10.85-24.519c-.16 2.094-.55 4.14-1.11 6.126-2.38-.498-4.74-.998-7.1-1.496 1.41-1.152 2.83-2.304 4.26-3.456-2.49-.994-5.08-1.358-7.63-1.071 1.97-2.137 3.94-4.274 5.9-6.412-.78-.654-1.65-.999-2.53-1.04 1.13-.195 2.25-.751 3.27-1.658-5.67-7.976-10.2-19.092-10.76-31.557-2.11 10.797-4.98 21.16-8.53 30.789l1.2 3.48c-.86 1.169-1.92 1.881-3.02 2.016.68 1.135 1.36 2.274 2.05 3.41-1.08.076-2.15.723-3.01 1.831 1.05 1.265 2.09 2.53 3.15 3.792-1.37.73-2.75 1.46-4.11 2.19-4.68-1.002-9.47-1.381-14.23-1.047 4.11-2.795 8.21-5.59 12.32-8.384a12.222 12.222 0 0 0-5.29-1.36c2.38-.253 4.71-.982 6.83-2.165-11.83-10.43-21.29-24.962-22.49-41.255-4.38 14.113-10.37 27.661-17.8 40.249.84 1.518 1.69 3.035 2.54 4.552-1.8 1.528-4.04 2.458-6.33 2.636 1.42 1.483 2.85 2.969 4.27 4.455-2.26.1-4.48.948-6.28 2.393 2.19 1.653 4.39 3.306 6.59 4.96-2.5.829-4.98 1.658-7.47 2.485-2.07-5.533-3.46-11.686-3.76-18.217-.68 3.475-1.47 6.882-2.3 10.256l-11.65-4.174c3.73-3.595 7.47-7.192 11.2-10.787-4.98-1.061-9.95-2.123-14.91-3.186 6.08-4.592 12.17-9.184 18.25-13.777l-21.78-4.313c2.96-2.26 5.93-4.518 8.9-6.778-5.2-1.952-10.6-2.665-15.93-2.105 4.11-4.192 8.22-8.387 12.33-12.581-1.61-1.257-3.39-1.945-5.18-2.045 2.34-.397 4.64-1.496 6.71-3.248-11.83-15.651-21.28-37.464-22.49-61.919-4.38 21.186-10.36 41.518-17.8 60.411.85 2.278 1.7 4.555 2.54 6.831-1.8 2.293-4.04 3.69-6.33 3.952 1.42 2.232 2.85 4.463 4.27 6.692-2.25.15-4.47 1.422-6.28 3.594 2.2 2.481 4.39 4.96 6.6 7.442-3.11 1.547-6.2 3.093-9.3 4.642 1.84 2.913 4.26 4.872 6.82 5.513-2.87 2.836-5.75 5.674-8.62 8.51 3.12 1.664 6.07 4.173 8.67 7.388-4.51 2.079-9.02 4.162-13.53 6.241 2.97 3.445 5.93 6.89 8.89 10.335-3.78 2.528-7.55 5.059-11.34 7.587-3.92-7.233-6.78-16.129-7.23-25.851-1.23 6.318-2.76 12.462-4.49 18.424-9.64-9.958-16.904-22.773-17.944-36.915-4.383 14.115-10.377 27.66-17.81 40.25a9291.48 9291.48 0 0 1 2.538 4.551c-1.796 1.527-4.035 2.459-6.33 2.635 1.425 1.483 2.85 2.97 4.274 4.455-2.256.102-4.478.948-6.282 2.395l6.592 4.959c-3.098 1.029-6.193 2.06-9.289 3.09 1.838 1.944 4.263 3.248 6.822 3.676l-8.632 5.668a28.954 28.954 0 0 1 8.684 4.923c-3.727 1.145-7.454 2.292-11.18 3.436-4.121-7.354-7.149-16.514-7.612-26.551-2.098 10.798-4.97 21.16-8.526 30.789l1.214 3.479c-.859 1.17-1.932 1.883-3.03 2.016a2365.06 2365.06 0 0 0 2.047 3.41c-1.082.076-2.145.724-3.009 1.831 1.052 1.264 2.105 2.528 3.156 3.795l-4.448 2.362c.881 1.486 2.042 2.485 3.267 2.811a1557 1557 0 0 1-2.477 2.599 116.205 116.205 0 0 1-9.362-21.911c-.73 9.924-6.49 18.777-13.694 25.13a10.853 10.853 0 0 0 4.159 1.319 7.462 7.462 0 0 0-3.223.829l7.507 5.106a31.173 31.173 0 0 0-9.7.855l5.419 2.751-.047.006c-3.166-1.022-6.333-2.04-9.5-3.062a49.292 49.292 0 0 1-1.292-8.039 188.706 188.706 0 0 1-2.298 6.881c-1.488-.479-2.977-.961-4.468-1.44 3.259-3.388 7.103-6.137 11.286-8.064-4.026-.959-8.052-1.921-12.078-2.881l11.192-7.189c-4.969-.706-9.935-1.414-14.905-2.121 6.084-3.059 12.165-6.119 18.249-9.179-7.26-.958-14.52-1.916-21.778-2.872 2.965-1.507 5.931-3.012 8.896-4.517a51.048 51.048 0 0 0-15.923-1.403c4.107-2.795 8.214-5.588 12.323-8.381a12.195 12.195 0 0 0-5.291-1.36 17.882 17.882 0 0 0 6.829-2.167c-11.83-10.428-21.285-24.962-22.483-41.255-4.385 14.114-10.378 27.663-17.809 40.25.843 1.517 1.691 3.036 2.538 4.551-1.798 1.528-4.036 2.457-6.33 2.632l4.272 4.458c-2.256.101-4.478.949-6.282 2.395 2.196 1.654 4.395 3.307 6.592 4.959l-7.515 2.5c-5.055-7.8-8.963-18.156-9.492-29.669-2.098 10.797-4.97 21.161-8.526 30.788l1.214 3.482c-.075.104-.161.183-.239.279-6.642-7.663-11.485-17.092-12.241-27.397a154.2 154.2 0 0 1-14.439 32.628l2.06 3.691c-1.458 1.237-3.272 1.991-5.133 2.134 1.156 1.205 2.311 2.41 3.467 3.613a8.812 8.812 0 0 0-5.094 1.942c1.779 1.34 3.56 2.679 5.343 4.019l-7.528 2.506c1.487 1.574 3.453 2.631 5.527 2.978-2.331 1.533-4.664 3.064-6.996 4.596a23.488 23.488 0 0 1 7.04 3.992l-9.529 2.927c-4.109-7.348-7.132-16.498-7.592-26.522-2.1 10.797-4.969 21.161-8.53 30.789l1.219 3.481c-.863 1.167-1.935 1.881-3.033 2.014l2.046 3.41c-.712.052-1.411.37-2.055.885a116.267 116.267 0 0 1-9.22-21.663c-.73 9.925-6.491 18.779-13.697 25.131a10.903 10.903 0 0 0 4.162 1.32 7.445 7.445 0 0 0-3.223.829l7.507 5.105c-3.25-.226-6.53.063-9.701.855 1.805.917 3.613 1.833 5.418 2.751l-13.265 1.75 11.115 5.591c-3.027.432-6.054.864-9.079 1.294 2.272 1.46 4.546 2.918 6.816 4.377-2.451.587-4.903 1.172-7.356 1.756a22.854 22.854 0 0 1 6.877 4.913l-4.011 1.291a115.93 115.93 0 0 1-9.206-21.639c-.276 3.74-1.267 7.326-2.778 10.684l-17.649-2.329c2.965-1.503 5.93-3.01 8.896-4.515a51.115 51.115 0 0 0-15.924-1.404c4.108-2.792 8.214-5.588 12.323-8.381a12.2 12.2 0 0 0-5.29-1.359 17.875 17.875 0 0 0 6.826-2.168c-11.827-10.427-21.284-24.96-22.482-41.251-4.383 14.113-10.377 27.659-17.81 40.248l2.541 4.55c-1.799 1.527-4.038 2.46-6.333 2.634 1.426 1.485 2.85 2.972 4.275 4.458-2.257.1-4.479.948-6.282 2.395 2.196 1.653 4.393 3.307 6.592 4.956-3.098 1.033-6.192 2.062-9.289 3.093 1.839 1.941 4.261 3.248 6.821 3.674l-8.632 5.672a28.916 28.916 0 0 1 8.685 4.92c-4.512 1.386-9.024 2.774-13.538 4.157 2.965 2.297 5.93 4.593 8.895 6.887-4.24 1.89-8.48 3.777-12.721 5.669 4.167 2.91 8.949 4.819 13.889 5.545l-17.359 5.617c5.489 3.905 12.026 6.125 18.624 6.324a301.571 301.571 0 0 1-27.889 13.289c1.499 3.485 3.992 6.479 7.065 8.482a55.397 55.397 0 0 1-13.777 7.451c3.73.083 7.46.168 11.19.254-4.096 2-8.192 4-12.288 5.998a18.125 18.125 0 0 1 9.69 1.129l-22.914 11.585c9.685 4.473 19.367 8.947 29.05 13.42a44.044 44.044 0 0 1-2.356 1.967H1440V113.72c-.6.03-1.21.076-1.8.139.59-.614 1.2-1.228 1.8-1.843v-36.18c-5.73-12.332-9.69-26.54-10.43-41.771-4.04 19.554-9.48 38.368-16.13 56.008a15.484 15.484 0 0 0-5.64-.425c1.97-2.138 3.93-4.275 5.9-6.412-.79-.653-1.66-1-2.53-1.04 1.14-.194 2.26-.75 3.27-1.656-5.66-7.977-10.19-19.094-10.77-31.557-2.1 10.796-4.97 21.158-8.53 30.787.41 1.16.81 2.322 1.22 3.482-.86 1.169-1.93 1.882-3.03 2.015.69 1.137 1.37 2.273 2.05 3.41-1.09.077-2.15.722-3.01 1.831 1.05 1.265 2.1 2.529 3.16 3.793-1.49.787-2.97 1.577-4.45 2.366.88 1.484 2.03 2.483 3.26 2.808-.68.718-1.36 1.436-2.05 2.153-4.68-7.511-7.85-15.943-8.51-24.91a191.534 191.534 0 0 1-13.52 32.526c-3.86-.826-7.73-1.652-11.58-2.478l18.24-13.777c-7.25-1.437-14.51-2.875-21.78-4.312 2.97-2.26 5.94-4.518 8.91-6.78-5.22-1.95-10.6-2.66-15.93-2.103 4.11-4.194 8.21-8.386 12.32-12.581-1.61-1.258-3.39-1.943-5.18-2.045 2.34-.398 4.63-1.497 6.72-3.25-11.83-15.65-21.29-37.464-22.49-61.918-4.38 21.184-10.38 41.52-17.81 60.412Zm89.49 33.762c.34-.276.68-.554 1.02-.832-.12.323-.24.651-.37.972-.21-.044-.43-.093-.65-.14Zm-48.78 26.566c1.23-1.189 2.46-2.376 3.7-3.565.81 1.449 1.61 2.895 2.42 4.342-.42.35-.85.661-1.31.946l-4.81-1.723Zm2.56 13.858c.6.455 1.21.908 1.81 1.363l-3.57 1.188c.57-.882 1.15-1.726 1.76-2.551Zm-281.51 19.752c3.12-4.853 6.76-8.818 10.71-11.684a185.9 185.9 0 0 1-4.3 14.785c-2.14-1.034-4.27-2.068-6.41-3.101Zm57.06-6.943c2.49-1.267 4.99-2.534 7.48-3.803.78.987 1.7 1.664 2.65 1.921-.9.951-1.81 1.904-2.72 2.86l-7.41-.978Zm28.65 2.035c1.2-.972 2.41-1.943 3.62-2.914a40.797 40.797 0 0 1-1.74 3.34c-.64-.141-1.26-.283-1.88-.426Zm-67.62 3.527c1.19.669 2.49 1.142 3.82 1.367-.81.537-1.62 1.07-2.43 1.605-.48-.966-.95-1.954-1.39-2.972Zm-91.2 2.429c.1-.01.2-.035.29-.046l-.03.068c-.08-.005-.17-.02-.26-.022Zm133.7 4.061c.54-.274 1.09-.547 1.62-.82.33.396.64.793.97 1.188-.87-.121-1.73-.245-2.59-.368Zm-116.89 5.264c-.79-.654-1.66-1.001-2.54-1.042 1.14-.194 2.26-.75 3.28-1.656-.26-.355-.51-.724-.75-1.093 3.07 2.306 6.36 3.89 9.72 4.632l-11.64 5.653c-1.32-.196-2.64-.23-3.97-.082 1.97-2.137 3.93-4.276 5.9-6.412Zm-18.47-3.233c.37 1.083.75 2.165 1.13 3.248-.11.142-.22.258-.33.387-2.06-.107-4.12-.128-6.17.016 1.78-1.217 3.57-2.434 5.37-3.651Zm300.43 9.689c.51-.923 1.03-1.846 1.54-2.771-.94-1.597-1.84-3.223-2.7-4.869 3.21 1.663 6.55 2.611 9.92 2.764-2.44 1.98-4.9 3.897-7.37 5.772a7.036 7.036 0 0 1-1.39-.896Zm-204.07-6.383c.05-.018.1-.025.15-.044.07.061.15.113.23.175a.461.461 0 0 1-.07.021c-.09-.051-.2-.102-.31-.152Zm136.8 11.009c1.57-.259 3.04-1.056 4.16-2.238-1.89-.628-3.77-1.256-5.66-1.885 1.08-.806 2.15-1.614 3.23-2.421.8 1.741 1.78 3.261 2.93 4.387a32.057 32.057 0 0 1-3.21 3.107l-1.45-.95Zm50.12-1.293 2.6 1.762c-1.7-.119-3.4-.089-5.08.07a44.39 44.39 0 0 1 2.48-1.832Zm-76.78 3.633c.12-.203.23-.407.35-.612l2.76 1.392c-.51.074-1.01.146-1.52.218a7.219 7.219 0 0 1-1.59-.998Zm-131.03 1.578c.86 1.367 1.96 2.299 3.13 2.609l-4.14 4.339c.24.135.48.299.71.457-4.28-.914-8.59-1.379-12.91-1.355 4.46-1.69 8.87-3.716 13.21-6.05Zm157.66 2.535c.98-.801 2.04-1.481 3.15-2.053.02 0 .05.001.07.003-.97.713-1.95 1.428-2.92 2.141l-.3-.091Zm-208.37 4.247c-1.63-.373-3.28-.746-4.91-1.117.08-.053.16-.103.24-.155-.81-.116-1.63-.231-2.44-.348-.01-.001-.02-.001-.02-.003 1.32-1.071 2.66-2.137 3.98-3.204 2.56 1.062 5.2 1.686 7.84 1.805a306.977 306.977 0 0 1-7.39 5.794c.9-.922 1.8-1.847 2.7-2.772Zm160.96-.653c.64.332 1.29.662 1.94.994-1.29.17-2.6.342-3.89.514.64-.503 1.29-1.005 1.95-1.508Zm91.25.127c.82.415 1.65.827 2.48 1.242-1.3.185-2.61.369-3.9.554.46-.622.94-1.222 1.42-1.796ZM966.481 199.72c-.784-.655-1.658-1.002-2.532-1.042 1.137-.194 2.256-.75 3.27-1.654a.212.212 0 0 0-.023-.035c1.135.879 2.27 1.756 3.403 2.635-2.276 1.014-4.555 2.029-6.831 3.045l2.713-2.949Zm-106.014 2.203c-.787-.653-1.658-1-2.535-1.04.87-.148 1.719-.522 2.526-1.089 1.387.897 2.916 1.543 4.519 1.811-2.878 1.887-5.755 3.78-8.631 5.669 1.051.372 2.069.829 3.072 1.326-1.606-.335-3.234-.446-4.85-.264l5.899-6.413Zm360.963 1.63c.58.157 1.15.319 1.74.467-.82-.004-1.64.046-2.45.08.24-.182.48-.366.71-.547Zm-257.483 7.105c.563-.458 1.124-.912 1.689-1.37a32.002 32.002 0 0 0 6.133 1.551c-.918.295-1.833.591-2.75.889-1.692-.358-3.382-.712-5.072-1.07Zm-106.016 2.203c1.244-1.008 2.488-2.017 3.734-3.025a29.312 29.312 0 0 1 3.364 2.36l-4.176 1.282-2.922-.617Zm-18.843 4.068a5.29 5.29 0 0 0 1.219.908 39.72 39.72 0 0 0-2.673.082l1.454-.99Zm105.499 7.009.941-1.69a16.245 16.245 0 0 1 1.618 1.812l-1.365.672a6.94 6.94 0 0 1-1.194-.794Zm27.035-1.258c.473.035.94.083 1.413.097-1.026.556-2.063 1.088-3.095 1.63.56-.577 1.122-1.151 1.682-1.727Zm-51.945 16.832c.526-.238 1.053-.47 1.576-.714l2.348 1.181c-1.155.163-2.31.327-3.463.492-.156-.32-.312-.638-.461-.959Zm-114.411 7.028c1.139-.196 2.256-.753 3.269-1.658-.48-.679-.951-1.39-1.417-2.113l4.009 3.103-3.526 1.573c-.735-.555-1.531-.868-2.335-.905Zm100.667-1.652a198.836 198.836 0 0 1-1.619 3.434 89.575 89.575 0 0 0-8.681-.404 144.21 144.21 0 0 0 10.3-3.03Zm-102.346 7.269a26.259 26.259 0 0 0 8.487 2.807c-1.344.435-2.69.869-4.034 1.305.494-.402.988-.804 1.485-1.204-2.492-.997-5.073-1.358-7.627-1.073l1.689-1.835Zm-16.086 7.375c.382-.685.766-1.37 1.148-2.057l.971 1.168-1.93 1.028c-.061-.051-.13-.088-.189-.139Zm19.453 8.205c1.348-1.08 2.694-2.164 4.042-3.248.699.079 1.402.133 2.105.152a231.201 231.201 0 0 1-6.01 3.128l-.137-.032Zm-73.295 20.237c4.091-2.06 8.185-4.12 12.279-6.178a43.21 43.21 0 0 1-5.295 7.172l-6.984-.994Zm3.71 9.308c.687-.44 1.377-.883 2.064-1.326 1.372.936 2.742 1.867 4.112 2.801l-6.176-1.475Zm27.567 3.353a6.613 6.613 0 0 0-3.827-1.459l1.268-1.322a87.629 87.629 0 0 0 9.016 2.813c-2.38-.009-4.756.165-7.119.465l.662-.497Zm-2.514 7.142a7.278 7.278 0 0 0 1.659-.514l.873.433-2.09.37a67.158 67.158 0 0 0-.442-.289Z" fill="url(#b)"/><path d="M-55.168 112.725c1.058 1.611 2.115 3.221 3.174 4.83-2.248 1.622-5.048 2.611-7.915 2.797 1.78 1.578 3.562 3.154 5.344 4.731-2.822.107-5.6 1.006-7.856 2.541 2.747 1.756 5.493 3.51 8.242 5.264l-11.615 3.281c2.298 2.063 5.329 3.448 8.53 3.902-3.6 2.004-7.195 4.011-10.793 6.017 3.908 1.177 7.599 2.951 10.86 5.226-5.643 1.47-11.286 2.942-16.93 4.414l11.122 7.307-15.905 6.018c5.209 3.089 11.19 5.117 17.366 5.886l-19.378 5.324a29.094 29.094 0 0 0-9.114-.78c1.214-.891 2.43-1.78 3.645-2.669.033-.017.07-.032.105-.048l-.03-.008c1.279-.938 2.56-1.874 3.838-2.81a7.117 7.117 0 0 0-3.247-.9 10.375 10.375 0 0 0 4.189-1.43c-6.864-6.513-12.418-15.456-13.618-25.513.137-.059.275-.117.412-.177-.144-.014-.29-.031-.435-.048a35.2 35.2 0 0 1-.147-1.499c-.139.482-.31.95-.454 1.431-6.859-.768-13.715-1.534-20.571-2.303 2.941-1.269 5.883-2.536 8.826-3.804a59.29 59.29 0 0 0-15.8-1.179c4.076-2.356 8.152-4.708 12.227-7.061-1.63-.72-3.436-1.104-5.25-1.147 2.361-.212 4.676-.824 6.776-1.824-11.736-8.783-21.118-21.024-22.307-34.747-4.35 11.887-10.298 23.299-17.674 33.901.842 1.278 1.681 2.557 2.523 3.833-1.786 1.285-4.006 2.07-6.281 2.218l4.239 3.755c-2.24.085-4.445.798-6.234 2.016l6.541 4.177c-2.414.683-4.825 1.363-7.237 2.044v1.996a13.218 13.218 0 0 0 4.788 1.659l-4.788 2.668v3.515a29.841 29.841 0 0 1 4.839 2.738l-4.839 1.262v7.885l.233.154-.233.088v9.155c.463.077.926.144 1.393.203l-1.393.382v9.512c.881.085 1.765.138 2.65.16-.88.405-1.764.806-2.65 1.203v202.634h664.839a63.731 63.731 0 0 0-3.985-2.785c-7.453-4.75-15.942-6.879-24.831-7.975.026-.025.049-.049.074-.076a.515.515 0 0 0-.468-.178c.075-.114.152-.227.225-.342-.145-.012-.304-.032-.409-.131-.106-.098-.104-.302.032-.352a.581.581 0 0 1-.459-.13.318.318 0 0 0 .314-.192 5.438 5.438 0 0 0-2.387-.324l-.058.261-.47.008c.077-.063.101-.181.044-.263a.232.232 0 0 0-.291-.067l.25-.257a.291.291 0 0 0-.263-.099l.129-.19c-.083-.01-.17-.02-.231-.073-.059-.057-.059-.171.02-.199a.318.318 0 0 1-.258-.072.181.181 0 0 0 .175-.109 3.038 3.038 0 0 0-1.335-.177l-.032.143c-.192.003-.381.008-.574.012a.507.507 0 0 1-.474.278c.12.03.109.214.006.279-.027.017-.062.017-.093.024.031-.048.062-.098.096-.144-.148-.015-.305-.035-.411-.132-.105-.097-.105-.302.032-.352a.573.573 0 0 1-.458-.131.31.31 0 0 0 .312-.193 5.4 5.4 0 0 0-2.385-.32c-.018.086-.038.173-.058.258l-1.028.02a.908.908 0 0 1-.847.499c.213.054.195.382.011.497-.148.092-.332.091-.511.068.277.101.366.55.146.782-.223.237-.822.297-1.069.303.023.012.036.041.055.054-4.018-.207-8.053-.364-12.058-.584l3.495-1.55c-.815-.767-1.814-1.277-2.857-1.459l3.642-.894c-1.253-.457-2.511-.914-3.767-1.369a5.82 5.82 0 0 1 1.611-1.125l-.897-.353a9.199 9.199 0 0 1 2.381-1.083l-3.321-.634 1.807-.969a9.803 9.803 0 0 0-3.031-.47 16.252 16.252 0 0 0 4.028-1.717l-2.58-.895a4.362 4.362 0 0 1 1.309-1.008c-.467-.118-.933-.24-1.4-.358.433-.301.865-.598 1.298-.896l-1.727-.266 2.113-1.145-2.522-.357c.343-.188.686-.377 1.031-.564a5.512 5.512 0 0 0-1.845-.175l1.426-1.045a1.324 1.324 0 0 0-.591-.172c.268-.033.531-.125.77-.268-1.37-1.302-2.466-3.114-2.604-5.147a24.848 24.848 0 0 1-2.063 5.02c.096.19.195.38.293.569-.209.19-.467.307-.733.328l.494.556c-.26.013-.519.118-.728.301.256.203.511.41.765.617l-1.078.386c.215.242.495.403.792.457l-1 .707c.362.139.705.347 1.005.615l-1.568.519c.344.287.686.574 1.032.859-.492.235-.983.471-1.475.708.481.362 1.036.6 1.609.69l-2.011.699a3.759 3.759 0 0 0 2.159.79 33.535 33.535 0 0 1-3.233 1.659c.174.435.463.806.82 1.056a6.329 6.329 0 0 1-1.597.932c.432.011.864.019 1.297.031l-1.425.749a1.95 1.95 0 0 1 1.124.139l-2.655 1.445c1.123.559 2.243 1.118 3.365 1.675a4.946 4.946 0 0 1-1.741 1.099l.815.722c-.375-.034-.754-.063-1.129-.102-14.237-1.506-27.936-5.508-41.616-9.672 1.868-.83 3.733-1.657 5.601-2.485-1.947-1.829-4.332-3.046-6.824-3.483l8.701-2.134-8.998-3.27a13.838 13.838 0 0 1 3.847-2.688c-.716-.279-1.43-.559-2.143-.839a22.09 22.09 0 0 1 5.682-2.59c-2.641-.506-5.285-1.008-7.926-1.512 1.438-.77 2.875-1.537 4.311-2.309a23.267 23.267 0 0 0-7.235-1.129 38.722 38.722 0 0 0 9.621-4.097l-6.159-2.139c.9-1.01 1.965-1.829 3.122-2.402-1.115-.285-2.227-.572-3.343-.858l3.096-2.14c-1.373-.211-2.748-.421-4.121-.633l5.049-2.735c-2.008-.284-4.019-.571-6.027-.853.821-.451 1.642-.898 2.462-1.347a13.141 13.141 0 0 0-4.405-.417c1.137-.833 2.271-1.665 3.408-2.496a3.196 3.196 0 0 0-1.409-.408 4.717 4.717 0 0 0 1.836-.644c-3.272-3.106-5.889-7.435-6.22-12.286a59.105 59.105 0 0 1-4.927 11.988c.235.45.468.902.701 1.356a2.98 2.98 0 0 1-1.75.784l1.182 1.327a2.906 2.906 0 0 0-1.738.713l1.824 1.477-2.57.921c.508.577 1.179.967 1.886 1.094-.795.563-1.591 1.127-2.388 1.688a7.88 7.88 0 0 1 2.404 1.469c-1.249.411-2.499.823-3.745 1.237l2.459 2.05c-1.172.564-2.345 1.127-3.519 1.689a8.687 8.687 0 0 0 3.844 1.652l-4.803 1.672c1.519 1.163 3.328 1.826 5.153 1.884-.775.449-1.564.863-2.351 1.287-2.301-.696-4.739-.975-7.143-.756-.069.302-.135.604-.203.906-1.195.022-2.39.047-3.582.068-.498 1.072-1.726 1.795-2.954 1.738.74.188.679 1.335.041 1.737-.513.32-1.153.31-1.773.227.96.359 1.267 1.92.501 2.728-.782.824-2.872 1.039-3.721 1.058.981.55 1.602 1.948 2.161 2.507-.718.13-1.506.667-2.385.729.471.476.93.933 1.381 1.378-9.111-1.871-18.312-3.135-27.575-3.981-.146-.23-.291-.461-.439-.691.46-.169.847-.501 1.074-.916l-2.498-.808c.374-.257.479-.805.224-1.172-.252-.365-.822-.49-1.218-.267.351-.358.7-.716 1.048-1.074a1.198 1.198 0 0 0-1.092-.416l.529-.796c-.343-.035-.712-.078-.958-.305-.245-.229-.245-.706.077-.821a1.36 1.36 0 0 1-1.073-.306c.313.025.629-.168.733-.447a12.575 12.575 0 0 0-5.56-.751c-.045.202-.093.404-.136.604-.8.017-1.598.033-2.396.047-.332.716-1.153 1.198-1.975 1.163.495.125.454.892.027 1.16-.343.215-.771.208-1.187.152.644.24.851 1.283.338 1.826-.526.552-1.924.692-2.489.707.655.366 1.071 1.302 1.445 1.675-.279.052-.574.188-.884.307-22.607-1.089-45.451-.59-68.088-1.573 4.09-1.812 8.179-3.627 12.269-5.44-2.901-2.725-6.452-4.536-10.159-5.182 4.318-1.063 8.634-2.123 12.954-3.184l-13.396-4.867a20.509 20.509 0 0 1 5.723-3.999l-3.188-1.252a32.775 32.775 0 0 1 8.46-3.857l-11.801-2.253c2.14-1.145 4.278-2.291 6.42-3.434a34.674 34.674 0 0 0-10.775-1.682c4.971-1.35 9.793-3.405 14.327-6.102-3.057-1.061-6.116-2.123-9.172-3.182 1.342-1.504 2.926-2.722 4.649-3.577a6113.14 6113.14 0 0 1-4.977-1.278l4.61-3.187c-2.045-.314-4.09-.628-6.137-.94l7.516-4.071c-2.989-.426-5.98-.851-8.971-1.274 1.223-.669 2.445-1.335 3.665-2.004a19.556 19.556 0 0 0-6.556-.621c1.69-1.24 3.381-2.478 5.073-3.718a4.772 4.772 0 0 0-2.18-.605 6.954 6.954 0 0 0 2.813-.959c-4.87-4.622-8.767-11.069-9.259-18.295-1.808 6.26-4.276 12.267-7.337 17.851.348.671.696 1.344 1.046 2.016-.74.679-1.663 1.092-2.608 1.17l1.763 1.976a4.299 4.299 0 0 0-2.589 1.061l2.714 2.2c-4.551-1.58-9.105-3.159-13.655-4.74 1.999-2.238 4.358-4.052 6.922-5.325l-7.407-1.901c2.289-1.584 4.576-3.164 6.865-4.746a8333.42 8333.42 0 0 1-9.14-1.402l11.189-6.061c-4.45-.63-8.901-1.263-13.354-1.896l5.456-2.982a29.119 29.119 0 0 0-9.767-.924c2.519-1.844 5.04-3.69 7.557-5.536a7.096 7.096 0 0 0-3.244-.899 10.391 10.391 0 0 0 4.187-1.431c-4.855-4.607-9.049-10.433-11.519-17.005a203.507 203.507 0 0 0 4.557-2.058c-1.904-.522-3.808-1.041-5.712-1.561a35.183 35.183 0 0 1-1.112-6.613 136.265 136.265 0 0 1-1.845 5.801l-19.173-5.245c4.074-3.6 8.882-6.517 14.112-8.56l-15.101-3.06 13.993-7.628c-6.211-.753-12.424-1.503-18.636-2.255 7.607-3.245 15.212-6.494 22.817-9.742-9.075-1.018-18.151-2.034-27.231-3.051 3.708-1.597 7.417-3.194 11.125-4.794a74.878 74.878 0 0 0-19.914-1.487c5.136-2.966 10.273-5.933 15.411-8.898-2.056-.907-4.332-1.389-6.618-1.444 2.975-.269 5.894-1.043 8.54-2.298-14.791-11.069-26.618-26.498-28.115-43.791-5.481 14.981-12.977 29.361-22.27 42.725 1.058 1.61 2.115 3.221 3.175 4.831-2.249 1.62-5.046 2.608-7.918 2.793 1.784 1.578 3.567 3.154 5.346 4.732-2.82.108-5.6 1.006-7.856 2.543 2.748 1.753 5.494 3.508 8.24 5.262-3.869 1.094-7.741 2.19-11.613 3.283 2.3 2.061 5.331 3.448 8.531 3.899l-10.793 6.018a38.471 38.471 0 0 1 10.861 5.225l-13.692 3.571-6.041-1.551c2.288-1.583 4.575-3.166 6.863-4.746-3.046-.467-6.093-.935-9.139-1.4 3.729-2.023 7.459-4.042 11.19-6.065l-13.355-1.896 5.455-2.981a29.194 29.194 0 0 0-9.766-.926 9714.78 9714.78 0 0 0 7.558-5.535 7.075 7.075 0 0 0-3.245-.896 10.45 10.45 0 0 0 4.187-1.432c-7.253-6.882-13.053-16.48-13.786-27.238-2.69 9.32-6.366 18.263-10.923 26.575l1.557 3.004c-1.1 1.01-2.474 1.624-3.883 1.741.876.979 1.747 1.961 2.623 2.943a6.098 6.098 0 0 0-2.201.543c-3.405-.936-6.81-1.874-10.216-2.809 2.973-2.638 6.483-4.776 10.298-6.276l-11.02-2.243c3.404-1.865 6.807-3.73 10.212-5.594l-13.6-1.652c5.55-2.38 11.101-4.763 16.652-7.145l-19.873-2.234 8.118-3.516a54.508 54.508 0 0 0-14.531-1.091c3.75-2.175 7.496-4.349 11.245-6.522-1.5-.666-3.16-1.018-4.827-1.06 2.17-.199 4.298-.763 6.23-1.685-10.792-8.116-19.423-19.426-20.515-32.107-4 10.985-9.472 21.528-16.253 31.326.772 1.179 1.546 2.359 2.318 3.543-1.64 1.187-3.682 1.912-5.778 2.047 1.302 1.157 2.602 2.311 3.9 3.469-2.056.079-4.086.736-5.73 1.863 2.002 1.288 4.007 2.573 6.012 3.859l-8.463 2.404a7.02 7.02 0 0 0-1.58-.247c1.46-.167 2.892-.647 4.188-1.43-7.253-6.886-13.054-16.481-13.787-27.239-2.689 9.319-6.365 18.264-10.921 26.577l1.555 3.005c-.112.102-.24.183-.36.278-6.73-1.84-13.46-3.683-20.188-5.523 4.074-3.598 8.884-6.515 14.114-8.561-5.035-1.018-10.071-2.038-15.105-3.059 4.666-2.542 9.33-5.085 13.995-7.629l-18.636-2.251c7.607-3.249 15.212-6.498 22.82-9.745l-27.232-3.05 11.12-4.794a74.804 74.804 0 0 0-19.91-1.487l15.41-8.9c-2.056-.906-4.33-1.387-6.617-1.443 2.974-.269 5.893-1.04 8.54-2.298C-19.573 102.722-31.4 87.296-32.898 70c-5.482 14.983-12.978 29.363-22.27 42.725Zm-57.68 40.935 16.862-7.201a132.268 132.268 0 0 1-3.067 8.868l-13.795-1.667Zm3.685 7.84a9316.9 9316.9 0 0 1 9.796-5.338 130.322 130.322 0 0 1-2.871 6.742c-2.309-.468-4.617-.935-6.925-1.404Zm.784 9.22c1.154-1.019 2.406-1.942 3.697-2.816-.522 1.018-1.017 2.054-1.563 3.052l.209.405-2.343-.641Zm147.43 1.831a12.028 12.028 0 0 0 4.972 1.899c-2.082 1.166-4.165 2.335-6.248 3.501-1.945-.248-3.906-.325-5.856-.178l7.131-5.222Zm-25.725 6.915 2.869 2.322c-1.898.682-3.797 1.36-5.696 2.043 1.127 1.283 2.614 2.144 4.184 2.425L9.389 190a17.423 17.423 0 0 1 5.325 3.251l-4.259 1.407c1.108-.468 2.216-.936 3.326-1.402a131.367 131.367 0 0 0-32.71-4.025 203.568 203.568 0 0 0 32.255-9.765Zm22.903 2.215c1.01-.551 2.018-1.103 3.027-1.655 1.7.741 3.323 1.621 4.816 2.668l-.249.065c-2.533-.36-5.063-.717-7.594-1.078Zm-121.955 1.709 3.502-1.916a46.026 46.026 0 0 0 7.825 3.523c-3.776-.534-7.551-1.072-11.327-1.607Zm11.304 9.357c-3.047-.465-6.093-.931-9.14-1.4l10.766-5.831a48.525 48.525 0 0 0 12.836 2.096 408.706 408.706 0 0 1-18.515 7.94c1.35-.934 2.703-1.869 4.053-2.805Zm-36.623-6.809c1.07 1.052 2.378 1.778 3.773 2.028-.498.35-.997.703-1.495 1.056-3.987-.45-8.007-.68-12.027-.669 3.28-.702 6.528-1.514 9.749-2.415ZM-5.712 201.48c4.139-1.747 8.28-3.493 12.419-5.238 1.72 1.43 3.44 2.865 5.16 4.3-1.895.91-3.79 1.817-5.685 2.729l-11.894-1.791Zm97.633 3.241c.801.526 1.677.906 2.587 1.068l-5.292 3.745a17.465 17.465 0 0 1 5.326 3.247l-.61.204a95.444 95.444 0 0 0-21.934-2.488 148.725 148.725 0 0 0 19.923-5.776ZM4.434 216.104c.984-.494 1.975-.973 2.973-1.44a19.211 19.211 0 0 0 5.953 1.164 180.66 180.66 0 0 1-3.473 1.963c-1.817-.564-3.634-1.125-5.453-1.687Zm77.209 3.373c2.06-.875 4.125-1.751 6.186-2.624 1.287 1.075 2.576 2.148 3.865 3.223l-1.459.697-8.592-1.296Zm39.34 3.068a23.56 23.56 0 0 1 4.131-3.637c3.102 2.037 6.206 4.077 9.306 6.116-1.005.38-2.008.761-3.015 1.14l-10.422-3.619ZM-3.27 228.673c.422-.327.876-.617 1.31-.934.521.68 1.125 1.273 1.76 1.816l-3.07-.882Zm125.944 4.532a45.676 45.676 0 0 0 13.208 3.721c-2.267.622-4.538 1.248-6.804 1.869a51.61 51.61 0 0 0-15.768-2.426 84.438 84.438 0 0 0 9.364-3.164Zm-39.25 6.207c2.12-1.652 4.419-3.105 6.833-4.38.97.185 1.948.297 2.93.33a184.614 184.614 0 0 1-8.211 4.5c-.518-.149-1.034-.299-1.551-.45Zm127.208 2.088a129.66 129.66 0 0 1-5.776 12.314 131.709 131.709 0 0 0-26.359-2.595 203.66 203.66 0 0 0 32.135-9.719Zm-85.866 11.584a49.703 49.703 0 0 1 7.53-3.918c1.714.231 3.438.391 5.171.434a411.46 411.46 0 0 1-10.159 4.482l-2.542-.998Zm66.948 10.384c4.624-1.952 9.248-3.901 13.871-5.854.07.135.14.273.211.408-1.102 1.006-2.474 1.621-3.882 1.739l2.622 2.943c-1.384.064-2.748.624-3.853 1.581l.808.654c-3.261-.49-6.518-.983-9.777-1.471Zm10.145 14.622c.05-.022.1-.046.15-.073.082.064.158.13.238.192-.13-.038-.259-.078-.388-.119Zm26.635 32.132c3.185-1.705 6.372-3.407 9.559-5.116a52.381 52.381 0 0 0-7.931-1.886l4.709-.911-6.264-1.794a85.923 85.923 0 0 0 11.456-5.129c.674.586 1.466.985 2.301 1.135l-3.557 2.514a11.78 11.78 0 0 1 3.578 2.182l-5.576 1.846c1.221 1.018 2.442 2.035 3.665 3.052-1.747.84-3.495 1.678-5.242 2.514 1.718 1.292 3.685 2.139 5.722 2.459-.931.326-1.861.648-2.79.972l-9.63-1.838Zm4.976 9.097a49.326 49.326 0 0 1 5.845-3.192c.699.141 1.41.234 2.12.257a121.26 121.26 0 0 1-6.509 3.506c-.485-.19-.972-.379-1.456-.571Zm-3.78 7.818a32.557 32.557 0 0 1 2.177-1.94c.312.307.638.594.991.843a22.566 22.566 0 0 1-2.116 1.478l-1.052-.381Zm243.719 50.906a.329.329 0 0 1 .027.082c-.027 0-.05-.013-.077-.008l.05-.074Zm-145.597-28.825c.1.018.205.036.308.05a.803.803 0 0 0-.282-.05h-.026Zm44.301 1.201c.152.027.308.052.465.074a1.196 1.196 0 0 0-.424-.075l-.041.001Zm95.999 27.548.131.022a.331.331 0 0 0-.119-.022h-.012Z" fill="url(#c)"/><path d="m858.857 133.482 2.879 5.318c-2.038 1.784-4.578 2.872-7.181 3.078l4.851 5.208c-2.562.117-5.083 1.106-7.128 2.798l7.477 5.793-10.537 3.612c2.086 2.271 4.835 3.794 7.738 4.293l-9.791 6.624c3.545 1.295 6.891 3.248 9.852 5.751l-15.357 4.86c3.364 2.682 6.724 5.364 10.089 8.045l-14.429 6.622c4.727 3.401 10.15 5.633 15.754 6.48l-14.585 4.862a75.006 75.006 0 0 1-4.462-8.359c-.765 7.137-6.403 13.558-13.701 18.395-1.821-.334-3.643-.665-5.465-.998l10.03-5.133a56.475 56.475 0 0 0-16.827-2.513 92.202 92.202 0 0 0 22.371-9.115l-14.324-4.757c2.099-2.246 4.572-4.066 7.262-5.343l-7.77-1.909c2.399-1.588 4.8-3.175 7.198-4.763l-9.585-1.405c3.911-2.028 7.823-4.055 11.738-6.083l-14.011-1.904 5.725-2.992a31.943 31.943 0 0 0-10.246-.93l7.929-5.554a7.703 7.703 0 0 0-3.405-.901 11.23 11.23 0 0 0 4.393-1.436c-7.608-6.908-13.692-16.537-14.46-27.335-2.822 9.353-6.677 18.33-11.46 26.671.547 1.005 1.09 2.011 1.634 3.015-1.156 1.012-2.596 1.629-4.073 1.745.918.985 1.833 1.97 2.751 2.953-1.451.067-2.882.629-4.042 1.587l4.24 3.286-5.976 2.048c1.183 1.286 2.743 2.152 4.39 2.434l-5.553 3.758a18.463 18.463 0 0 1 5.586 3.261l-8.709 2.756 5.722 4.56-8.182 3.757c2.68 1.929 5.755 3.195 8.933 3.676l-11.166 3.721c3.532 2.587 7.735 4.058 11.982 4.19a191.403 191.403 0 0 1-17.944 8.805c.159.379.36.731.551 1.091a10.153 10.153 0 0 0-2.777-.487c.984-.704 1.968-1.41 2.953-2.113-1.585-.084-3.133-.527-4.375-1.25.585-.721 1.169-1.439 1.756-2.159-5.135-5.969-9.28-12.393-12.308-19.088-.827 7.726-7.363 14.619-15.537 19.565 1.463.562 3.076.906 4.72 1.028a11.639 11.639 0 0 0-3.658.644c2.839 1.325 5.679 2.649 8.515 3.974a50.967 50.967 0 0 0-11.002.665c2.049.715 4.099 1.43 6.147 2.142l-6.191.562c-4.227-5.283-7.699-10.89-10.328-16.7-.826 7.727-7.361 14.619-15.536 19.565 1.465.561 3.075.906 4.719 1.026-1.262.026-2.522.239-3.655.646 2.837 1.326 5.676 2.651 8.516 3.974a51.24 51.24 0 0 0-9.272.418l-5.605-1.181c1.803-1.016 3.839-1.81 6.002-2.333l-5.965-2.691c1.767-.201 3.443-.822 4.713-1.742-2.139-.489-4.279-.977-6.418-1.467l4.555-2.349c-1.245-.688-2.783-1.089-4.342-1.136.986-.704 1.97-1.41 2.953-2.113-1.586-.084-3.131-.527-4.374-1.25.585-.721 1.171-1.439 1.754-2.159-5.135-5.969-9.278-12.393-12.306-19.088-.175 1.631-.618 3.223-1.263 4.77l-8.052-1.166c1.609-.896 3.222-1.792 4.831-2.689a25.324 25.324 0 0 0-8.649-.834c2.232-1.664 4.464-3.328 6.692-4.992a6.186 6.186 0 0 0-2.873-.81 9.1 9.1 0 0 0 3.709-1.29c-6.423-6.209-11.562-14.863-12.212-24.567-2.38 8.406-5.638 16.473-9.672 23.969l1.378 2.709c-.977.91-2.192 1.464-3.438 1.57l2.322 2.654c-1.227.059-2.433.563-3.413 1.425 1.193.985 2.385 1.97 3.579 2.953l-4.67 1.705a83.614 83.614 0 0 0-16.139-.816c4.658-2.176 9.318-4.351 13.98-6.527-1.866-.664-3.929-1.018-6.004-1.059 2.698-.197 5.346-.764 7.748-1.685-13.42-8.119-24.148-19.432-25.505-32.116-4.973 10.987-11.774 21.534-20.203 31.333l2.879 3.543c-2.037 1.19-4.577 1.915-7.18 2.053 1.616 1.154 3.232 2.311 4.848 3.468-2.56.078-5.081.738-7.126 1.863l7.478 3.861c-2.825.645-5.65 1.291-8.477 1.935-2.343-4.308-3.922-9.098-4.264-14.182-.767 2.705-1.656 5.358-2.599 7.984l-13.218-3.249 12.694-8.397-16.906-2.481 20.7-10.725-24.703-3.357c3.363-1.76 6.728-3.518 10.091-5.277a56.337 56.337 0 0 0-18.065-1.639 34869.2 34869.2 0 0 0 13.981-9.794 13.56 13.56 0 0 0-5.878-1.591 19.857 19.857 0 0 0 7.621-2.529c-13.418-12.184-24.146-29.165-25.505-48.202-4.972 16.492-11.769 32.32-20.202 47.028.959 1.774 1.921 3.546 2.88 5.318-2.038 1.785-4.577 2.873-7.181 3.077 1.619 1.737 3.235 3.474 4.851 5.209-2.56.117-5.082 1.107-7.128 2.798 2.491 1.931 4.984 3.861 7.478 5.793-3.515 1.204-7.026 2.408-10.538 3.614 2.086 2.267 4.834 3.793 7.739 4.292-3.265 2.207-6.527 4.416-9.792 6.625 3.545 1.294 6.893 3.248 9.851 5.751-5.119 1.618-10.237 3.239-15.356 4.858l10.088 8.045c-4.289 1.968-8.578 3.939-12.869 5.907-4.449-5.631-7.692-12.556-8.201-20.125-1.393 4.919-3.12 9.702-5.095 14.343-10.931-7.752-19.174-17.728-20.353-28.737-4.972 10.988-11.772 21.533-20.204 31.333l2.88 3.543c-2.038 1.189-4.578 1.915-7.18 2.051 1.616 1.155 3.232 2.313 4.848 3.469-2.56.079-5.081.737-7.127 1.864 2.492 1.286 4.986 2.573 7.478 3.861-3.514.801-7.025 1.603-10.537 2.405 2.085 1.513 4.835 2.529 7.738 2.862l-9.792 4.412c3.548.863 6.892 2.164 9.852 3.833l-12.683 2.674c-4.675-5.724-8.11-12.856-8.634-20.669-2.38 8.406-5.638 16.472-9.672 23.968.459.904.916 1.807 1.377 2.709-.974.911-2.192 1.466-3.437 1.569.774.886 1.546 1.77 2.322 2.655-1.227.059-2.433.564-3.413 1.425 1.193.984 2.387 1.968 3.58 2.955l-5.046 1.838c.999 1.157 2.315 1.935 3.706 2.188-.937.677-1.873 1.35-2.81 2.024-4.359-5.387-7.929-11.116-10.621-17.058-.827 7.726-7.361 14.618-15.533 19.564 1.459.563 3.073.906 4.718 1.027-1.265.026-2.522.239-3.656.645l8.515 3.975a50.952 50.952 0 0 0-11.002.665l6.145 2.142-.053.004-10.776-2.383c-.726-2.044-1.236-4.128-1.465-6.258a119.985 119.985 0 0 1-2.607 5.357c-1.69-.373-3.377-.749-5.069-1.121 3.697-2.638 8.058-4.778 12.803-6.279-4.566-.746-9.134-1.494-13.701-2.242 4.231-1.866 8.463-3.73 12.696-5.596l-16.907-1.652 20.7-7.145c-8.235-.746-16.471-1.492-24.704-2.236l10.092-3.516a83.605 83.605 0 0 0-18.063-1.093c4.658-2.176 9.318-4.35 13.979-6.524-1.864-.666-3.927-1.02-6.002-1.058 2.698-.199 5.345-.765 7.745-1.688-13.418-8.118-24.144-19.432-25.503-32.116-4.974 10.988-11.774 21.535-20.203 31.334.958 1.181 1.92 2.363 2.879 3.543-2.039 1.189-4.577 1.913-7.179 2.049l4.846 3.47c-2.56.079-5.08.739-7.126 1.864 2.491 1.288 4.985 2.575 7.477 3.861l-8.524 1.947c-5.735-6.073-10.167-14.135-10.768-23.097-2.38 8.405-5.638 16.473-9.671 23.967l1.377 2.711c-.086.081-.183.143-.272.217-7.534-5.965-13.028-13.306-13.886-21.328-4.03 8.906-9.543 17.456-16.379 25.401.781.958 1.558 1.914 2.337 2.873-1.653.963-3.712 1.55-5.823 1.661l3.932 2.812c-2.074.065-4.119.598-5.778 1.512l6.061 3.129-8.539 1.951c1.687 1.225 3.917 2.049 6.27 2.318l-7.936 3.578c2.875.7 5.586 1.755 7.986 3.108l-10.81 2.278c-4.661-5.719-8.089-12.843-8.612-20.646-2.382 8.405-5.637 16.473-9.676 23.968l1.382 2.71c-.978.908-2.194 1.464-3.44 1.568.773.885 1.55 1.771 2.321 2.655-.807.04-1.6.287-2.331.688-4.287-5.331-7.802-10.993-10.46-16.863-.827 7.726-7.362 14.618-15.537 19.563 1.463.562 3.078.908 4.721 1.028-1.264.025-2.521.239-3.656.645l8.516 3.974a51.046 51.046 0 0 0-11.004.665c2.047.715 4.098 1.428 6.146 2.142l-15.048 1.363 12.609 4.352-10.299 1.008 7.733 3.407c-2.782.457-5.563.912-8.346 1.367 2.891.914 5.549 2.218 7.801 3.825l-4.55 1.005c-4.282-5.325-7.79-10.982-10.442-16.846-.314 2.911-1.437 5.703-3.152 8.318l-20.02-1.814c3.363-1.17 6.727-2.343 10.091-3.514a83.683 83.683 0 0 0-18.065-1.093c4.661-2.174 9.318-4.35 13.979-6.525-1.863-.667-3.927-1.018-6-1.058 2.696-.198 5.345-.765 7.744-1.687-13.417-8.118-24.144-19.431-25.503-32.114-4.973 10.987-11.771 21.533-20.203 31.333l2.882 3.542c-2.04 1.188-4.58 1.914-7.184 2.051l4.85 3.47c-2.56.077-5.081.738-7.127 1.864 2.492 1.287 4.984 2.574 7.478 3.858-3.514.804-7.023 1.606-10.537 2.408 2.086 1.511 4.833 2.528 7.738 2.86-3.264 1.472-6.527 2.942-9.792 4.416 3.549.861 6.892 2.162 9.851 3.829-5.118 1.08-10.236 2.16-15.356 3.237l10.089 5.361c-4.809 1.471-9.618 2.94-14.43 4.413 4.728 2.266 10.152 3.752 15.756 4.317l-19.692 4.373c6.226 3.039 13.641 4.768 21.127 4.922a427.273 427.273 0 0 1-31.637 10.346c1.7 2.713 4.529 5.043 8.014 6.603-4.812 2.443-10.087 4.4-15.627 5.8l12.693.198c-4.647 1.557-9.293 3.114-13.939 4.669 3.685-.404 7.513-.098 10.991.879l-25.992 9.019c10.986 3.481 21.969 6.964 32.954 10.447a50.59 50.59 0 0 1-2.673 1.531h872.779V174.981c-.683.023-1.366.059-2.048.108l2.048-1.435v-28.165c-6.501-9.6-10.983-20.66-11.83-32.517a226.058 226.058 0 0 1-18.302 43.6 25.38 25.38 0 0 0-6.393-.33c2.231-1.665 4.461-3.328 6.694-4.992a6.194 6.194 0 0 0-2.873-.81 9.077 9.077 0 0 0 3.706-1.289c-6.424-6.21-11.559-14.864-12.211-24.566-2.382 8.404-5.636 16.471-9.673 23.967l1.379 2.711c-.977.91-2.193 1.464-3.439 1.568l2.322 2.655c-1.226.06-2.433.563-3.411 1.425l3.58 2.953c-1.684.612-3.365 1.227-5.047 1.842.999 1.155 2.314 1.933 3.706 2.186l-2.326 1.676c-5.313-5.848-8.91-12.411-9.658-19.393-3.972 8.777-9.129 17.263-15.331 25.322l-13.144-1.929c6.897-3.576 13.798-7.151 20.697-10.726l-24.7-3.356c3.362-1.76 6.725-3.518 10.091-5.278a56.409 56.409 0 0 0-18.065-1.638c4.659-3.264 9.319-6.528 13.977-9.794a13.562 13.562 0 0 0-5.874-1.591 19.89 19.89 0 0 0 7.618-2.53c-13.417-12.183-24.145-29.165-25.502-48.202-4.972 16.491-11.773 32.323-20.203 47.029Zm101.505 26.283c.389-.215.777-.432 1.164-.648-.142.251-.275.507-.419.757-.249-.035-.497-.072-.745-.109Zm-55.336 20.681 4.197-2.775a2898.92 2898.92 0 0 0 2.749 3.38 13.57 13.57 0 0 1-1.484.736l-5.462-1.341Zm2.905 10.788c.686.355 1.371.707 2.057 1.061l-4.049.925a45.49 45.49 0 0 1 1.992-1.986Zm-319.33 15.376c3.526-3.778 7.663-6.864 12.156-9.095a117.949 117.949 0 0 1-4.884 11.509l-7.272-2.414Zm64.72-5.405 8.495-2.96c.879.768 1.915 1.296 2.999 1.495-1.029.741-2.061 1.483-3.091 2.227-2.802-.256-5.603-.508-8.403-.762Zm32.499 1.585c1.369-.757 2.739-1.513 4.111-2.269-.595.89-1.26 1.757-1.981 2.6-.709-.109-1.421-.22-2.13-.331Zm-76.709 2.746c1.362.52 2.832.889 4.349 1.064-.922.418-1.846.832-2.769 1.249a40.975 40.975 0 0 1-1.58-2.313Zm-103.449 1.89c.113-.007.22-.027.332-.036a.332.332 0 0 0-.027.053c-.1-.004-.202-.015-.305-.017Zm151.661 3.161 1.849-.638 1.091.925c-.98-.094-1.961-.191-2.94-.287Zm-132.592 4.098a6.194 6.194 0 0 0-2.874-.81 9.106 9.106 0 0 0 3.709-1.29c-.286-.276-.567-.564-.848-.851 3.489 1.795 7.216 3.029 11.033 3.606l-13.212 4.401a25.332 25.332 0 0 0-4.5-.064c2.229-1.663 4.46-3.329 6.692-4.992Zm-20.96-2.517c.43.844.861 1.686 1.289 2.529-.119.111-.254.201-.38.301-2.332-.083-4.666-.099-6.993.013 2.028-.947 4.059-1.895 6.084-2.843Zm340.807 7.544c.586-.719 1.172-1.438 1.754-2.158a88.842 88.842 0 0 1-3.067-3.79c3.633 1.294 7.43 2.032 11.245 2.152a335.738 335.738 0 0 1-8.354 4.493 8.89 8.89 0 0 1-1.578-.697Zm-231.487-4.97c.055-.014.111-.019.165-.034.086.048.181.088.266.137l-.073.016-.358-.119Zm155.186 8.57c1.768-.201 3.442-.822 4.713-1.742l-6.42-1.467c1.219-.627 2.439-1.257 3.657-1.885.904 1.355 2.025 2.539 3.332 3.415a35.882 35.882 0 0 1-3.643 2.419l-1.639-.74Zm56.851-1.006 2.94 1.372a50.91 50.91 0 0 0-5.755.054 52.667 52.667 0 0 1 2.815-1.426Zm-87.097 2.828c.131-.158.26-.317.388-.476l3.138 1.084-1.722.169a8.973 8.973 0 0 1-1.804-.777Zm-148.64 1.228c.979 1.064 2.225 1.79 3.545 2.032-1.561 1.125-3.123 2.251-4.688 3.377.273.106.537.233.804.356a98.153 98.153 0 0 0-14.646-1.054 159.022 159.022 0 0 0 14.985-4.711Zm178.849 1.974a22.655 22.655 0 0 1 3.57-1.598l.085.002-3.319 1.667-.336-.071Zm-236.372 3.306-5.571-.869.271-.121-2.773-.271-.022-.002c1.507-.834 3.015-1.664 4.523-2.494a36.635 36.635 0 0 0 8.89 1.404 336.999 336.999 0 0 1-8.385 4.511l3.067-2.158Zm182.578-.509c.738.259 1.478.516 2.219.775-1.476.132-2.952.266-4.43.4l2.211-1.175Zm103.524.1 2.802.966c-1.47.146-2.943.288-4.415.432a32.74 32.74 0 0 1 1.613-1.398Zm-362.047 10.696a6.172 6.172 0 0 0-2.873-.81 9.133 9.133 0 0 0 3.708-1.288.14.14 0 0 0-.026-.028c1.288.685 2.577 1.368 3.862 2.052-2.584.789-5.167 1.58-7.75 2.37l3.079-2.296Zm-120.26 1.716a6.204 6.204 0 0 0-2.875-.81 9.013 9.013 0 0 0 2.865-.848 17.612 17.612 0 0 0 5.125 1.41c-3.264 1.469-6.528 2.943-9.79 4.413 1.193.29 2.347.645 3.485 1.032-1.822-.26-3.668-.347-5.502-.205l6.692-4.992Zm409.471 1.268c.651.123 1.304.249 1.958.364-.919-.003-1.841.036-2.762.062l.804-.426Zm-292.087 5.532a868.12 868.12 0 0 1 1.916-1.067c2.264.557 4.591.969 6.957 1.207l-3.119.692-5.754-.832Zm-120.26 1.715c1.41-.785 2.821-1.57 4.235-2.355 1.322.553 2.608 1.155 3.816 1.837l-4.737.998-3.314-.48Zm-21.375 3.166c.44.292.899.535 1.381.707a66.595 66.595 0 0 0-3.031.064l1.65-.771Zm119.675 5.456c.353-.438.711-.876 1.067-1.315.637.424 1.255.888 1.835 1.411l-1.548.523a8.717 8.717 0 0 1-1.354-.619Zm30.666-.979c.538.028 1.067.065 1.604.076-1.164.432-2.34.847-3.511 1.269.635-.449 1.273-.896 1.907-1.345Zm-58.923 13.104c.596-.186 1.194-.366 1.786-.556l2.664.919-3.928.383c-.177-.249-.355-.496-.522-.746Zm-129.786 5.471a9.162 9.162 0 0 0 3.709-1.291 49.108 49.108 0 0 1-1.608-1.645l4.547 2.415-3.999 1.225a6.192 6.192 0 0 0-2.649-.704Zm114.194-1.287c-.602.895-1.21 1.788-1.836 2.674a148.27 148.27 0 0 0-9.847-.315c3.931-.68 7.824-1.476 11.683-2.359Zm-116.099 5.659a39.9 39.9 0 0 0 9.629 2.185l-4.577 1.016 1.683-.937a25.356 25.356 0 0 0-8.65-.835c.638-.476 1.278-.952 1.915-1.429Zm-18.247 5.741c.432-.533.869-1.066 1.302-1.601l1.102.91-2.189.8c-.07-.04-.147-.068-.215-.109Zm22.068 6.388c1.528-.841 3.056-1.685 4.584-2.528a41.34 41.34 0 0 0 2.389.118 315.601 315.601 0 0 1-6.818 2.435l-.155-.025Zm-83.145 15.754c4.641-1.604 9.284-3.207 13.929-4.809-1.708 2.001-3.744 3.873-6.007 5.583l-7.922-.774Zm4.208 7.246c.781-.343 1.563-.687 2.342-1.032l4.665 2.18-7.007-1.148Zm31.271 2.61c-1.243-.687-2.781-1.089-4.34-1.136l1.438-1.029c3.355.854 6.768 1.591 10.228 2.19-2.7-.007-5.396.129-8.076.362l.75-.387Zm-2.851 5.56a11.18 11.18 0 0 0 1.881-.4c.33.111.66.224.991.337l-2.37.288-.502-.225Z" fill="url(#d)"/></g><defs><linearGradient id="b" x1="-760.416" y1="-9430.05" x2="2485.15" y2="5919.19" gradientUnits="userSpaceOnUse"><stop/><stop offset="1" stop-color="#010508"/></linearGradient><linearGradient id="c" x1="-205.251" y1="237.76" x2="531.916" y2="237.76" gradientUnits="userSpaceOnUse"><stop/><stop offset="1" stop-color="#010508"/></linearGradient><linearGradient id="d" x1="-1503.02" y1="-7254.58" x2="271.035" y2="4971.19" gradientUnits="userSpaceOnUse"><stop/><stop offset="1" stop-color="#010508"/></linearGradient><clipPath id="a"><path fill="#fff" transform="translate(0 -43)" d="M0 0h1440v434H0z"/></clipPath></defs></svg>