<svg width="426" height="544" fill="none" xmlns="http://www.w3.org/2000/svg"><g fill="#fff" clip-path="url(#a)"><path d="M-42 515.297 2.983 519s5.005-1.893 10.673-4.72c.81-.396 1.64-.823 2.455-1.263 4.608-2.447 9.234-5.397 11.648-8.364 5.875-7.196 11.627-16.483 12.884-30.407 1.23-13.924-2.132-23.958-3-33.179-.396-4.202-.871-10.515-1.06-16.902-.017-.344-.017-.697-.033-1.04-.195-7.308-.007-14.56 1.105-18.686 2.134-7.952 4.965-17.622 9.227-22.872 4.264-5.274 18.498-11.19 25.409-10.764 6.91.43 17.144 5.406 24.176 10.856l.193.144.5.383.012.002c6.649 5.038 11.333 6.688 15.93 7.635 4.759.982 9.773 5.825 18.403 8.014 3.842.978 11.529 2.298 20.077 2.777 2.156.128 4.374.206 6.589.2 8.672-.006 17.443-1.115 23.435-4.462 12.344-6.911 17.722-17.187 22.479-24.345.473-.717.94-1.4 1.419-2.046a22.734 22.734 0 0 0 1.47-2.277c3.811-6.67 4.201-14.708 3.068-25.258-.932-8.644-5.814-14.517-8.772-16.167-2.929-1.648-5.054-5.959-10.569-6.413-1.408-.116-3.081-.454-4.907-.923l-.216-.055c-5.264-1.32-11.674-3.573-16.213-4.17-6.172-.804-11.394-.784-14.674-2.544-.576-.308-.991-.697-1.271-1.18-1.383-2.253-.024-6.229.113-9.988.172-4.559 4.528-6.125 7.848-7.777 3.32-1.642 5.724-4.396 7.794-5.704 2.056-1.308 4.041-.412 7.535 1.057 3.478 1.469 7.17 2.671 12.281.574 5.111-2.094 5.386-9.008 4.887-12.298-.502-3.292 2.125-3.371 5.382-6.056 3.272-2.685 5.178-2.669 7.82-2.901 2.546-.228 5.675-4.341 5.92-4.663-.201.183-1.917 1.673-4.472 2.714-2.743 1.11-4.876.036-8.341-.096-2.121-.08-4.119.961-5.186 1.782.295-.884.584-2.304 1.071-3.893.827-2.732-.383-4.32-.739-7.305-.354-2.982 1.476-6.814 3.14-9.193 1.663-2.37 6.508-3.6 6.508-3.6-2.103.134-5.368-.289-8.926 3.555-3.584 3.84-2.906 8.623-3.339 10.949-.446 2.327-3.694 7.968-2.435 10.587 1.26 2.61.294 8.143-1.286 9.785-1.579 1.644-4.685 2.864-8.609 2.245-3.937-.62-7.317-1.49-7.317-1.49s.822-1.112 1.189-2.856c.38-1.739-1.664-6.635-3.614-7.834-1.953-1.19-2.11-2.975-1.959-5.763.01-.2.033-.412.058-.634.36-2.771 2.084-6.657 3.528-9.422 1.551-2.968 4.278-5.402 4.278-5.402s-2.726.957-4.174 2.905c-1.434 1.949-3.034 5.363-3.034 5.363-.524-1.521-3.017-1.134-3.736-3.852-.747-2.721-.747-3.453-.747-3.453-1.712 2.068-.306 4.983 1.466 6.171 1.786 1.185 1.981 2.526.611 5.368-.803 1.67-1.549 3.805-1.634 5.655-.049 1.271.197 2.414.976 3.151 1.883 1.787 2.868 2.304 3.223 5.289.354 2.982-2.031 5.585-3.709 6.63-1.693 1.041-6.775 4.476-6.775 4.476 1.368-1.377 1.307-3.887-1.875-5.036-2.005-.719-4.241-.644-5.973-.845-1.002-.12-1.84-.34-2.351-.868-1.392-1.448-.48-4.92.903-6.425 1.398-1.514.776-3.634.776-3.634s-.791 2.297-1.746 3.106c-.969.805-3.484 2.962-1.949 6.338.679 1.487 1.429 2.599 2.35 3.42 1.191 1.031 2.687 1.579 4.714 1.746 3.613.297 3.281 1.736 1.963 4.145-1.319 2.408-5.283 5.177-7.839 10.732-2.371 5.148-.582 12.041-.305 13.009l.031.108s-2.182-.77-4.509-3.182c-2.342-2.404-5.394-10.772-6.03-14.227-.662-3.459-.169-4.6 1.217-7.723 1.418-3.145.539-6.17 2.513-8.218 1.974-2.047 4.089-6.906 6.176-9.831 2.062-2.927 5.681-7.071 9.878-11.889 4.199-4.817 6.311-17.203 7.977-22.536 1.64-5.325 6.558-10.237 5.202-13.598-1.355-3.361-.375-8.894-4.149-17.039-3.762-8.132-10.506-10.012-12.74-8.731-2.238 1.306-6.546 4.046-9.172 4.125-2.626.08-3.13-1.593-4.774-2.318-1.074-.466-2.135-.318-3.662-.479a12.55 12.55 0 0 1-3.001-.662c-3.347-1.149-2.869-2.291-7.023-2.493-4.153-.2-8.365 4.63-12.019 7.731-3.653 3.09-6.118 4.814-11.311 7.625-5.197 2.831-7.593 2.481-10.774 1.334-3.167-1.149-4.507-4.651-5.5-8.134-.994-3.486-3.101-9.414-5.013-14.003-.86-2.09-1.573-4.018-2.05-5.792-.58-2.129-.82-4.05-.62-5.796.37-3.23 1.159-4.037 3.329-4.758 2.167-.695 4.168 1.526 6.085 3.019 1.917 1.493 7.303 1.629 9.885.222 2.611-1.404 3.544-6.643 3.981-10.461.433-3.791-2.054-7.849-5.32-8.258-3.252-.412-9.55-3.15-11.224-3.739-1.673-.574-4.147-3.296-8.199-5.838-4.066-2.544-5.473-3.997-5.188-6.49.284-2.481 2.232-7.342 2.453-12.205.193-4.852-2.636-10.544-7.716-14.814-5.082-4.247-8.81-5.003-13.014-4.758-4.205.244-12.692-.159-15.382-.972-2.61-.784-8.82-2.842-9.212-2.958.284.214 4.763 3.642 9.512 4.838 4.912 1.231 9.085 1.257 14.471 1.261 5.402-.004 8.287 2.149 10.81 4.437 2.525 2.263 4.765 7.032 5.641 11.536.878 4.502.559 7.289-.992 10.257-1.563 2.968-.17 4.417-.17 4.417l-1.777.444c-1.804.442-6.041.98-9.305-.919-3.264-1.888-5.888-3.286-7.988-4.641-2.1-1.354-5.087-1.163-7.5-2.827-2.424-1.689-5.132-2.349-7.857-2.868-2.724-.52-4.353.091-6.646-1.282-2.266-1.367-4.484-.226-6.192.956-1.71 1.196-5.751 1.607-5.751 1.607s4.104.621 6.286-.204c2.183-.825 3.172-.354 5.98.907 1.357.613 2.56.424 3.735.234 1.265-.204 2.497-.407 3.85.391 2.606 1.548 6.821 2.783 8.262 3.942 1.428 1.145-1.746 3.092-4.7 3.005-2.956-.092-5.83.701-10.808 1.625-4.975.913-7.799-.205-11.244-1.967-3.329-1.691-6.836-4.496-7.103-4.708.173.309 3.01 5.317 7.491 7.401 4.626 2.153 7.665 1.375 10.164.835 2.497-.538 8.475-1.074 12.384-1.781 3.91-.717 4.895-1.674 6.883-2.387 1.992-.731 3.399.719 5.334 2.059 1.934 1.343 6.887 3.675 10.17 3.946 1.327.11 2.214-.185 2.974-.476 1.112-.43 1.956-.858 3.514-.029 2.624 1.398 3.196 3.95 7.361 5.627 4.165 1.68 5.326 3.689 7.474 6.087 2.178 2.389 6.86 2.481 9.65 2.416 2.79-.068 4.643 2 4.835 4.828.205 2.829-.735 4.96-3.462 5.918-2.71.959-8.207-1.268-11.39-2.274-3.186-.994-7.204-2.365-8.784-.723-1.58 1.642-3.888 6.484-1.715 11.827.437 1.054.905 2.19 1.403 3.319 1.813 4.237 3.786 8.525 4.076 9.163-.262-.399-1.44-2.151-3.856-3.781-1.163-.78-2.925-1.693-4.884-2.575-2.686-1.214-5.715-2.363-8.041-3.074-4.039-1.206-9.616-2.705-15.585.797-5.966 3.489-6.311 9.666-8.583 12.728-2.27 3.061-5.234 13.901-6.789 19.823-1.555 5.922 1.158 11.18 3.68 14.932 2.536 3.752 5.744 9.181 7.956 11.135 2.212 1.956.94 5.549 3.527 8.717 2.432 2.966 4.793 3.856 5.089 3.952-2.657-2.453-3.54-5.325-4.096-8.006-.566-2.718.649-2.76.649-2.76 3.397.729 5.74 3.133 8.211 5.854 2.475 2.708 2.094 4.59 2.579 7.89.489 3.28 3.369 7.061 3.369 7.061l-.342-1.646c-.325-1.646-.497-6.244-.817-9.522-.323-3.275-1.714-4.866-3.532-7.225-1.816-2.372-7.507-5.794-10.46-7.361-2.952-1.578-4.054-1.079-8.164-13.823-4.11-12.747 3.208-18.94 5.25-21.582 2.041-2.632 4.772-5.209 8.114-8.631 3.357-3.422 8.577-3.429 10.823-1.768 2.245 1.662 5.737 4.61 7.011 7.219 1.15 2.376 3.237 6.399 4.97 10.098.18.381.36.762.525 1.143 1.646 3.622 1.237 6.221 2.59 9.004l.251.481.208.373c1.913 3.113 8.287 11.163 11.797 12.479 3.508 1.328 6.417 1.711 12.082.856 5.666-.86 8.965-.74 14.358-2.363 5.419-1.622 5.9-2.917 10.501-5.044 4.6-2.127 6.252-5.983 8.31-8.768 2.059-2.785 5.244-3.255 8.376-1.672 1.552.788 3.276 1.78 4.789 3.287l.011.015c.226.218.438.436.659.69l-.001.013c1.243 1.426 2.313 3.263 2.996 5.695 1.611 5.757 1.29 11.484-1.213 15.118-2.504 3.634-6.314 12.62-7.328 16.979-1.011 4.335-2.277 6.159-4.99 7.116-2.712.957-3.557 5.178-7.768 8.66-4.244 3.502-9.719 7.329-12.745 9.442-1.331.931-2.184 1.817-2.725 2.779-.647 1.151-.848 2.409-.863 4.005l-.007.305c-.007 3.107-2.885 5.517-3.121 9.043-.236 3.524 2.817 10.43 6.901 12.691 4.086 2.251 8.179 6.134 9.489 8.31 1.312 2.175-.432 2.326 2.39 3.446 2.824 1.119 8.059 2.577 12.147 1.887 4.074-.693 5.947-.397 14.014.267 8.054.664 15.322 3.33 19.19 6.011 3.869 2.683 5.142 6.77 6.413 10.868 1.119 3.614 3.056 8.334 2.528 13.574-.043.609-.142 1.24-.269 1.868l-.056.242c-.892 3.909-6.717 11.015-12.267 15.863-.479.412-.957.821-1.431 1.194-2.608 2.115-5.06 3.59-6.789 3.86-5.668.87-12.661-.297-22.508-2.444-6.043-1.314-13.652-3.926-20.76-7.134-.397-.175-.793-.361-1.19-.546-4.035-1.846-7.866-3.887-11.107-5.973-9.246-5.936-22.614-12.357-27.239-15.973-4.622-3.642-13.044-4.62-22.286-4.508-9.23.138-18.812 4.807-21.148 6.979-.905.847-1.928 1.52-3.369 2.44-.33.208-.677.44-1.052.669-2.195 1.426-5.278 3.44-9.968 7.073-8.978 6.94-12.217 17.024-16.552 24.49-4.333 7.466-7.318 21.398-6.588 33.275.626 10.236-1.622 35.505-2.307 45.763-.015.247-.028.481-.053.705a89.703 89.703 0 0 0-.142 2.954c-.11 5.462-6.131 18.554-9.175 20.82-3.04 2.255-15.599 8.606-19.82 10.466-4.21 1.877-9.452 18.875-9.452 18.875"/><path d="M107.052 204.954c-3.723.35-12.619-4.622-8.89-17.154 3.733-12.529 4.42-15.58 9.861-21.587 5.44-6.004 14.262-8.852 20.588-8.951 1.15-.016 2.399.042 3.711.099 5.912.257 13.105.514 18.211-6.058 6.237-8.033 2.738-12.329 6.017-17.222 3.278-4.892 9.472-10.963 20.635-8.493 11.163 2.467 13.53 8.014 19.403 8.417 5.871.403 12.983-1.832 12.65-7.331-.335-5.493-5.406-12.643-7.07-18.714-1.661-6.067-4.167-15.287-.136-20.243 4.032-4.96 13.589-10.408 20.233-7.541 6.643 2.867 12.872 8.995 14.583 15.52 1.711 6.527 1.632 8.143-5.276 17.043-6.907 8.893-5.746 15.008-1.29 18.758 4.457 3.75 9.562 8.826 8.635 12.014 0 0 1.662-5.785-2.867-10.22-4.53-4.436-8.402-9.849-5.026-13.831 3.376-3.981 8.219-10.852 10.419-16.341 2.202-5.49 1.756-7.293 1.756-7.293s5.614 2.73 11.501-1.474c5.889-4.2 16.103-3.49 16.103-3.49s-2.601-2.993-7.348-2.345c-4.746.65-9.856 5.013-15.478 4.588-5.622-.426-6.019-1.772-10.369-6.913-4.351-5.14-9.401-12.065-18.763-11.928-9.363.133-17.026 1.962-19.73 7.493l-2.704 5.534s2.37-11.03 1.43-15.09c-.941-4.062 3.445-17.568 10.596-24.185 7.15-6.617 9.79-7.998 16.806-4.013 7.016 3.987 12.59 11.09 21.564 7.305 8.974-3.781 13.289-10.84 20.75-12.185 7.459-1.35 8.934.593 12.758 5.553 3.824 4.953 10.28 8.067 13.423 9.404 3.145 1.334 4.262 1.924 4.262 1.924s-5.032-4.39-9.164-7.477c-4.131-3.09-7.09-11.808-14.113-13.49-7.022-1.683-10.11-2.102-16.653 3.08-6.542 5.18-7.7 6.203-12.877 7.581-5.175 1.375-9.21-.8-9.21-.8s9.407-2.12 8.922-9.03c-.485-6.909-4.635-12.528-6.224-17.91-1.59-5.388-1.355-7.94-5.541-9.182-4.19-1.242-7.811-6.68-7.528-8.776 0 0-.996 4.924 2.706 8.74 3.703 3.817 5.93 5.694 7.277 8.799 1.345 3.102 4.839 9.7 4.573 14.329-.266 4.626.594 10.306-7.158 8.918-7.752-1.39-6.109-4.988-15.902-4.124-9.793.864-18.684 10.163-24.245 22.165-5.561 12.002-4.934 20.234-5.086 28.302-.153 8.071 4.094 14.605 6.736 20.355 2.643 5.753 3.664 8.195.547 9.852-3.118 1.655-10.694-.441-18.397-1.371-7.702-.934-19.301-.369-25.535 10.077-6.233 10.449-7.114 18.812-12.12 21.787-3.505 2.08-4.503 2.023-7.554 1.969a62.392 62.392 0 0 0-5.405.095c-8.059.479-8.131-.206-14.288 1.489-6.156 1.692-5.912 3.972-9.037 7.935-3.126 3.956-4.65 1.558-10.01 5.946-5.36 4.385-4.89 19.635-6.336 26.109-1.443 6.477-2.771 9.642 1.63 15.259 4.403 5.62 10.674 7.369 10.674 7.369s5.126-1.832 7.418-4.108c2.29-2.274.952-4.938.952-4.938M.13 540.661 38.5 544s-.051-1.564.417-3.854c.438-2.128 3.355-15.176 7.367-21.177l.001-.01c.155-.233.293-.43.445-.627.152-.206.302-.391.45-.565 3.555-4.176 10.46-13.871 18.245-20.429.215-.179.427-.347.627-.516 1.78-1.454 3.606-2.725 5.443-3.731 10.114-5.525 14.65-9.406 28.126-15.99 10.858-5.311 24.67-14.523 33.199-22.667l.014-.012.002-.022c2.056-1.965 3.806-3.851 5.125-5.611 5.525-7.372 16.693-25.036 23.44-37.238l.001-.012.148-.28c1.534-2.777 2.816-5.263 3.758-7.265 5.067-10.825 11.074-14.379 24.621-13.584 9.356.546 16.695 3.866 22.699 9.467l.165.154.011.012c2.628 2.477 4.999 5.399 7.173 8.71 2.119 3.223 4.952 6.198 8.316 8.585.917.651 1.877 1.26 2.867 1.824 4.957 2.795 10.788 4.352 16.985 3.829 9.106-.757 15.643-3.086 22.745-8.012.253-.177.505-.354.773-.539l.014-.012c1.984-1.421 3.987-3.018 6.147-4.857 10.203-8.732 11.571-19.82 10.405-25.605-1.168-5.776-6.503-11.913-8.331-16.008-1.828-4.097-4.719-14.833-1.052-18.731 1.454-1.55 2.382-2.448 3.356-3.038l.179-.101c1.436-.807 3.066-.98 6.705-1.502 6.254-.912 12.983-3.099 20.997-6.619.396-.173.793-.36 1.202-.546.37-.177.755-.366 1.126-.555a65 65 0 0 0 4.108-2.217c.472-.273.929-.536 1.374-.811.459-.275.916-.55 1.35-.837a81.286 81.286 0 0 0 2.57-1.665 43.87 43.87 0 0 0 1.231-.836c2.96-2.026 5.258-3.817 6.21-4.701.779-.725 1.779-1.442 2.845-2.058 1.86-1.109 3.922-1.92 5.372-1.886 2.266.056 3.909-1.687 6.821-3.041 1.56-.725 2.037-.496 2.857-.267.711.201 1.681.4 3.836-.024 4.643-.912 5.471-1.12 8.527 2.059 3.071 3.179 4.472 8.239 3.208 12.358-1.25 4.119 0 7.571 1.784 10.64 1.773 3.066.631 6.169 1.103 9.264.468 3.103 5.782 3.567 5.782 3.567-4.166-1.958-3.243-3.045-3.19-6.533.052-3.491.014-6.127.014-6.127 1.585 3.353 10.402 5.868 13.939 6.175 3.537.309 4.804 2.167 7.251 3.544 2.449 1.378 7.832-1.95 7.832-1.95s-2.055.987-4.32.94c-2.268-.046-4.914-2.606-7.696-3.874-2.785-1.267-10.425-2.654-14.647-5.643-4.222-2.988-3.879-4.705-3.425-10.35.455-5.633-.481-12.122-2.724-15.381-2.247-3.248-6.301-6.222-12.733-6.78-6.225-.542-12.873 2.699-13.285 2.908l.181-.229c.155-.221.347-.46.542-.699l.076-.098c1.486-1.968 4.676-6.511 6.561-11.566 1.813-4.876 3.159-7.834 3.284-11.258.051-1.335-.094-2.745-.461-4.374-1.323-5.788-1.755-12.232-1.621-16.602.159-4.342 3.293-9.31 6.581-12.823 3.311-3.484 6.633-10.183 8.995-11.143 2.39-.958 9.359-.934 12.437.638 3.076 1.575 4.672 6.373 3.778 8.624-.89 2.253-1.683 8.009-.481 11.911 1.124 3.639 5.655 6.303 6.217 6.609-1.74-1.794-3.199-5.951-3.257-8.543-.027-2.621.944-5.601.944-5.601s4.985 4.813 8.903 6.167c3.467 1.199 7.929 1.356 8.913 1.37-4.671-.265-10.731-5.931-13.005-8.563-2.306-2.681-2.948-4.194-2.496-6.927.45-2.723-2.373-9.525-6.673-10.33-4.303-.808-8.809.397-8.809.397s.602-1.112 2.393-2.552c1.769-1.454 3.864-1.271 6.899-2.312 3.036-1.052 3.479-.723 6.297-1.198 2.819-.488 4.323-2.396 7.77-2.82 3.45-.434 5.731-.386 9.12-3.281 3.393-2.92 5.18-8.869 6.686-12.233 1.493-3.365 4.963-6.998 6.942-8.713 1.976-1.727 5.01-1.314 6.959-2.89 1.961-1.577 3.92-6.218 3.92-6.218-1.988 3.474-6.125 5.724-9.048 5.621-2.899-.102-6.049 5.007-6.049 5.007 1.111-2.818 1.366-8.176.318-12.066-1.034-3.863-2.825-3.88-6.039-5.615-3.215-1.737-6.597-2.03-6.597-2.03s4.038 3.125 6.393 3.91c2.357.789 4.238 2.84 4.296 5.314.056 2.486.298 10.812-1.359 12.555-1.656 1.743-5.572 6.505-5.963 10.104-.39 3.613-4.072 6.203-5.032 5.97-.938-.223 1.705-3.779 1.511-6.416-.195-2.639-1.162-8.836-1.874-12.684-.714-3.85-1.657-7.135-6.221-6.949-4.564.183-6.225 3.535-7.862 3.543-1.611 0-5.065-2.631-5.065-2.631 1.083 1.982 3.344 5.091 6.118 4.902 2.786-.189 3.814-2.149 6.162-2.958 2.373-.807 2.615 1.392 3.344 5.101.744 3.699.137 13.839-.982 16.654-1.124 2.816-1.89 2.456-4.294 2.107-2.388-.36-4.998 1.313-7.25 2.56-2.254 1.272-7.34 1.842-10.188 2.609-2.838.777-5.938 4.003-8.528 5.384-2.59 1.37-4.815 2.492-6.933 4.057-2.115 1.562-11.62 14.411-13.962 19.6-2.352 5.188-3.129 12.389-2.986 15.616.043.936.119 2.143.208 3.467.215 3.177.491 6.996.363 9.245-.188 3.188-4.043 8.817-5.2 12.07-1.041 2.904-2.136 7.513-7.051 12.501l-.352.356a24.208 24.208 0 0 1-1.629 1.5c-6.615 5.691-12.299 7.223-14.737 7.314-2.381.06-10.798 3.088-11.217 3.229.023-.08.159-.396.356-.89l.002-.012c.497-1.237 1.357-3.538 1.787-5.599.662-3.006-.345-4.257-1.003-5.619-.669-1.363.546-3.588-2.742-6.203-3.289-2.617-6.56-5.382-8.531-8.176-1.969-2.791-2.999-9.719-2.869-12.481.13-2.761 1.682-6.551 7.14-8.987 5.457-2.438 14.268-4.432 17.107-6.665 2.838-2.235 4.756-4.828 7.071-6.804 2.319-1.988 4.752-1.918 8.587-4.356 3.834-2.438 6.758-2.462 8.081-4.245 1.336-1.783 1.694-5.095 2.955-7.746 1.262-2.663 3.458-6.41 3.458-6.41s-2.317 1.849-3.803 3.607c-1.489 1.757-3.073 4.392-3.443 6.247-.358 1.868-2.628 3.416-5.448 3.906-2.816.476-6.79 2.751-6.79 2.751 1.827-1.879 2.53-6.92 1.769-10.33-.761-3.41 1.963-9.147 1.963-9.147-1.645 1.755-4.24 6.189-3.759 9.282.473 3.094-1.882 8.284-3.785 9.432-1.9 1.139-4.146 5.312-5.146 7.124-1.012 1.799-5.811 4.153-9.411 4.422-3.483.257-9.476 2.496-9.853 2.626 4.371-2.974 3.565-5.946 2.224-8.683-1.315-2.735-4.328-4.884-6.635-7.567-2.306-2.683-2.119-4.412-1.16-8.836.958-4.425 5.668-8.827 8.14-10.791 2.498-1.972 4.488-.925 6.695-1.897 2.087-.912 3.584-4.429 3.761-4.866-1.025 1.797-3.629 3.422-6.789 2.855-.851-.154-1.567-.032-2.14.233l.194-.251c1.321-1.632 1.469-5.998.186-7.707-1.191-1.595-4.219-3.372-4.599-3.581 1.645 1.356 4.93 6.394 3.332 9.296-1.614 2.922-7.05 8.274-7.05 8.274s.25-.864-.423-2.089c-.685-1.223-3.426-2.905-5.231-4.229-1.803-1.321-.095-5.111-.095-5.111s-1.443 1.332-1.909 4.203c-.48 2.87 4.082 4.282 5.028 5.971.948 1.691-.759 4.012-3.707 8.706-2.937 4.695 2.705 11.009 1.632 10.475-.671-.33-1.33-.26-2.48-.189-.687.042-1.551.082-2.697.04-3.064-.127-4.023-1.818-5.277-3.675-1.266-1.856-.157-6.117-.157-6.117-3.374 2.759-2.264 7.374.409 9.786 2.649 2.408 6.245 2.291 9.382 3.297 3.139.996 6.199 2.718 7.97 5.786 1.772 3.065-.972 4.42-5.283 6.82-4.309 2.396-5.031 4.511-6.542 9.471-1.512 4.97-1.662 10.921-1.662 10.921s-5.417-2.499-6.266-5.206c-.84-2.681-1.887-6.569-1.528-9.882.358-3.312 1.974-7.692 1.86-11.196-.101-3.502-3.389-6.117-3.389-6.117s.029 1.167.835 2.844c.78 1.664.729 3.697-.178 6.088-.909 2.402-3.536 7.124-3.592 10.753-.081 3.638 3.155 8.29 4.911 11.495 1.769 3.217 6.282 5.067 8.547 6.567 2.266 1.514 3.166 7.707 7.335 11.181 4.171 3.461 4.998 7.809 4.178 11.429-.738 3.232-7.006 7.873-9.964 9.768-.348.215-.653.398-.888.541-2.316 1.359-7.874 2.809-11.664 5.787-3.787 2.969-3.59 9.194-6.175 11.112-2.594 1.904.413 4.111 1.742 7.908l.144.466-.002.024c.129.374.265.782.406 1.282 1.593 5.566 4.624 18.481 6.022 21.516 1.575 3.446 2.165 7.959-4.778 16.09-6.054 7.101-16.55 6.422-24.321 3.601a30.86 30.86 0 0 1-3.191-1.338 15.65 15.65 0 0 1-2.015-1.187c-6.708-4.605-11.32-14.545-14.411-16.935-3.403-2.625-2.492.948-3.02 1.869-.176.31-.909-.126-2.038-.969-.288-.211-.6-.45-.936-.711-2.289-1.76-5.667-4.489-9.358-6.383-4.625-2.381-5.946-2.415-7.408-2.345l-.168-.002c-.484.026-1.006.052-1.687-.008-2.252-.195-5.5-1.621-10.091-2.149a28.256 28.256 0 0 0-3.51-.201l-.22.006c-6.406.036-11.936 1.348-23.111 7.668-7.288 4.116-15.084 13.77-21.695 24.11a156.292 156.292 0 0 0-3.722 6.071 190.576 190.576 0 0 0-5.852 10.779c-3.627 7.243-7.935 13.1-12.155 17.415-.335.344-.658.677-.989.986-4.107 3.988-8.105 6.505-11.282 7.428-6.702 1.944-21.902 8.381-30.774 10.331-1.676.368-3.495.992-5.372 1.769-.258.107-.504.215-.76.319-7.82 3.384-16.295 9.228-18.829 10.686-3.238 1.85-22.453 15.518-36.13 33.931C-2.064 518.919.128 540.661.128 540.661Z"/></g><defs><clipPath id="a"><path fill="#fff" transform="translate(0 -480)" d="M0 0h1440v1024H0z"/></clipPath></defs></svg>